<svg width="800" height="800" viewBox="0 0 24 24" fill="none" xmlns="http://www.w3.org/2000/svg"><path d="M2.6 21.586l1.469-.63 1.524-.49 2.05-1.061 1.196-.413 1.697-.816 4.017-1.6 1.37-.672 1.256-.63 2.145-.83A18.672 18.672 0 008.998 4.394L8.01 6.767c-.141.34-.254.69-.331 1.048-.1.444-.245.87-.436 1.283l-.63 1.356a6.39 6.39 0 00-.322.848l-.558 1.873c-.059.2-.127.395-.204.585l-1.02 2.48-.93 2.635c-.068.2-.15.395-.24.585l-.925 1.937c-.055.118.063.245.185.19z" fill="url(#prefix__paint0_linear)"/><path d="M11.17 17.918c-.249-.581-.625-.935-1.11-.835-1.148.236-1.846-1.31-3.13-.884-.535.177-1.523.28-2.385-.068l-.045.104-.93 2.635c-.068.2-.15.394-.24.585l-.916 1.94c-.055.119.063.246.185.191l1.47-.63 1.524-.49 2.05-1.061 1.196-.413 1.697-.816.634-.258z" fill="url(#prefix__paint1_linear)"/><path d="M11.837 13.46c1.043 1.873 3.306 2.14 4.748 2.104l.585-.295 2.145-.83A18.635 18.635 0 008.998 4.395L8.01 6.766c-.141.34-.254.69-.331 1.048-.1.444-.245.87-.436 1.283l-.63 1.356a6.39 6.39 0 00-.322.848l-.358 1.206c2.23.921 4.539-1.496 5.904.953z" fill="url(#prefix__paint2_linear)"/><path d="M2.6 21.586l1.469-.63 1.524-.49 2.05-1.061 1.196-.413 1.697-.816 4.017-1.6 1.37-.672 1.256-.63 2.145-.83A18.672 18.672 0 008.998 4.394L8.01 6.767c-.141.34-.254.69-.331 1.048-.1.444-.245.87-.436 1.283l-.63 1.356a6.39 6.39 0 00-.322.848l-.558 1.873c-.059.2-.127.395-.204.585l-1.02 2.48-.93 2.635c-.068.2-.15.395-.24.585l-.925 1.937c-.055.118.063.245.185.19z" fill="url(#prefix__paint3_linear)"/><path d="M8.998 4.395L8.01 6.766c-.141.34-.254.69-.331 1.048-.091.408-.223.803-.39 1.179 1.705-.417 4.063-1.914 5.07-.09 1.505 2.725 3.8 1.614 4.543 3.486.744 1.873 2.422 2.05 2.422 2.05A18.679 18.679 0 008.998 4.395z" fill="url(#prefix__paint4_linear)"/><path d="M17.841 14.67c-.276-.045-2.557 1.293-3.015 1.388-.458.095-2.513 1.351-3.31 1.447-.799.095-2.663 1.188-3.248 1.283-.585.095-2.666 1.478-3.532 1.592-.626.081-1.492.848-2.304.97l-.023.046c-.054.117.064.244.186.19l1.47-.63 1.528-.49 2.05-1.061 1.197-.413 1.696-.816 4.018-1.601 1.37-.671 1.255-.63 2.145-.83c-.045-.105-.09-.204-.136-.309-.49.245-1.17.563-1.347.535z" fill="url(#prefix__paint5_linear)"/><path d="M19.315 14.444c-.798-4.449-5.705-8.236-10.317-10.05l-.185.44c1.237.032 2.68 1.606 3.183 2.422.535.87 2.68.925 2.993 2.209.308 1.278 2.118 1.333 2.503 2.494.34 1.03 1.256 1.768 1.225 2.716l.598-.231z" fill="url(#prefix__paint6_radial)"/><path d="M8.79 4.893l-.78 1.873c-.14.34-.254.69-.331 1.048-.1.444-.245.87-.436 1.283l-.63 1.356a6.39 6.39 0 00-.322.848l-.558 1.873a6.37 6.37 0 01-.204.585l-1.02 2.48-.749 2.1c.876-.177 1.778-2.281 2.753-2.816 1.297-.717-.54-4.086 1.528-6.222 1.855-1.918 2.055-4.39.749-4.408z" fill="url(#prefix__paint7_linear)"/><g opacity=".75" fill="#FFBC47"><path opacity=".75" d="M14.055 9.982c-.014.018-.018.04-.014.063.005.023.023.04.045.05l.395.168a.09.09 0 00.036.004.064.064 0 00.027-.009.076.076 0 00.041-.05l.1-.453a.075.075 0 00-.023-.068c-.018-.018-.045-.027-.068-.018-.362.081-.376.09-.54.313zM11.978 11.922c-.018-.004-.041-.022-.064-.036-.054-.036-.117-.077-.19-.059-.046.01-.086.041-.118.095-.113.19.045.322.136.4l.036.031c.032.027.064.05.095.068l.037.023c.013.009.032.014.05.014a.073.073 0 00.04-.014c.01-.01.023-.014.032-.018a.18.18 0 00.068-.064c.05-.095.095-.2.055-.294-.027-.069-.086-.114-.177-.146zM9.579 6.54c.1.018.208.04.317.031.023 0 .041-.004.064-.009.077-.013.127-.077.177-.136a.393.393 0 01.058-.063.086.086 0 00.023-.06.064.064 0 00-.027-.054c-.127-.109-.272-.077-.385-.05-.15.037-.218.046-.286-.09-.014-.028-.036-.041-.073-.041a.079.079 0 00-.063.054c-.036.132-.032.227.013.3.028.063.091.1.182.118zM12.286 16.294a.068.068 0 00.027.068c.11.09.182.136.25.131.108-.009.213-.131.426-.376.023-.027.023-.064.004-.095a.078.078 0 00-.09-.027l-.572.235c-.022.018-.04.037-.045.064zM9.135 7.079c-.01 0-.023 0-.041-.005a.076.076 0 00-.077.041l-.018.032c-.064.136-.155.317.063.463a.204.204 0 00.109.022c.04-.004.081-.018.104-.045.127-.168.104-.345-.068-.485-.027-.023-.05-.023-.072-.023zM11.23 13.56c.013.009.031.013.05.013.008 0 .018-.004.031-.009a.084.084 0 00.04-.068l-.008-.526c0-.032-.018-.054-.046-.068-.027-.013-.059-.004-.081.014-.163.15-.245.24-.24.349.004.104.09.177.253.295zM10.68 7.143l.06.1c-.023.013-.046.027-.06.054-.027.04-.022.086-.022.122v.032c0 .023.01.05.027.064.014.013.037.018.055.018h.013l.14-.037a.072.072 0 00.046-.036c.01-.018.014-.036.01-.059l-.019-.077c.118-.036.168-.136.209-.213.036-.073.059-.118.109-.136a.071.071 0 00.045-.05c.009-.023 0-.05-.014-.068l-.05-.068a.072.072 0 00-.1-.018l-.421.263c-.04.027-.05.072-.027.109zM5.466 16.34l.013-.046a.076.076 0 00-.036-.086.07.07 0 00-.09.013l-.35.35H5c-.046-.019-.087-.037-.146-.032-.054.004-.095.036-.131.063-.014.01-.023.018-.036.023a.075.075 0 00-.028.1l.046.077c.013.027.04.04.072.036.01 0 .019-.005.028-.01l.208-.099h.005c.013 0 .027 0 .04-.009.037.005.064.01.096.005.213-.01.272-.232.313-.386zM5.062 19.087l.435.019h.01a.068.068 0 00.063-.046c.014-.027.005-.063-.018-.086-.254-.236-.3-.254-.54-.014a.079.079 0 00-.018.082c.014.023.04.045.068.045zM14.93 10.14c-.018-.004-.068-.013-.104.023a.451.451 0 00-.1.163c-.014.027-.027.054-.04.086-.014.023-.01.05 0 .073.008.023.035.036.063.036.036 0 .068.005.1.01.045.004.09.008.13.004a.145.145 0 00.064-.014c.019-.004.041-.023.06-.059a.341.341 0 00-.005-.222c-.037-.059-.123-.09-.168-.1zM9.747 15.079c-.01.032.009.068.036.086l.054.032c.096.054.209.118.327.109.086-.005.172-.05.25-.168a.069.069 0 00.004-.077.075.075 0 00-.068-.041l-.535.005c-.032-.005-.06.018-.068.054zM12.508 9.47c-.009.017-.018.03-.027.049-.05.077-.118.186-.032.331.028.045.105.082.164.077a.077.077 0 00.045-.013c.181-.1.122-.259.086-.34-.009-.023-.018-.041-.022-.06-.014-.045-.05-.054-.078-.063a.212.212 0 00-.04-.014.078.078 0 00-.096.032zM17.62 13.55l.348.132a.078.078 0 00.078-.014c.022-.018.027-.05.022-.077-.045-.158-.072-.24-.145-.272-.077-.031-.154.01-.313.095-.027.014-.04.041-.04.073 0 .027.022.054.05.064zM6.912 15.832c-.027.036-.018.081-.009.108 0 .005.005.014.005.019.004.022.013.04.031.054.014.01.032.014.05.014H7l.058-.014a4.15 4.15 0 00.232-.05c.045-.009.059-.05.068-.072a.224.224 0 00.013-.032.078.078 0 00-.022-.09c-.082-.069-.16-.096-.236-.082-.082.013-.145.059-.2.145zM8.318 8.118c-.095-.028-.181.031-.254.086-.018.013-.036.027-.054.036a.073.073 0 00-.032.082c.01.032.036.054.068.059l.372.036h.014c.022 0 .04-.014.054-.032a.083.083 0 00.01-.072c-.05-.114-.105-.177-.178-.195zM9.198 15.723c.01 0 .014 0 .023-.005.018-.01.036-.023.04-.04l.046-.114a.077.077 0 00-.005-.064.07.07 0 00-.05-.036c-.04-.009-.077-.027-.122-.05a.556.556 0 00-.426-.063c-.032.009-.055.031-.06.063a.076.076 0 00.042.077l.476.232h.036zM6.155 15.387l.036-.118a.089.089 0 00-.004-.059.072.072 0 00-.046-.036l-.285-.086a.076.076 0 00-.096.045l-.031.087a.077.077 0 00.04.095l.277.118c.01.004.023.004.036.004.01 0 .019-.004.028-.004.022-.005.036-.023.045-.046zM10.908 8.181c-.023-.013-.05-.013-.068 0-.023.01-.037.032-.041.06-.018.122 0 .208.054.262.055.054.132.064.204.059.014 0 .032-.005.046-.005.045-.004.068-.036.086-.068.009-.009.018-.022.027-.036a.081.081 0 00.018-.063.08.08 0 00-.04-.055l-.286-.154zM9.334 14.217c.04.018.082.018.122.014.014 0 .028-.005.041-.005.018 0 .032-.004.05-.004.027 0 .05-.014.064-.041a.078.078 0 000-.077c-.01-.014-.019-.032-.028-.05a.35.35 0 00-.1-.136c-.045-.036-.1-.027-.163-.018-.027.004-.054.004-.09.009a.068.068 0 00-.064.045.069.069 0 00.01.077l.05.064c.026.054.058.1.108.122zM11.878 9.537c-.268-.14-.29-.14-.526-.018-.032.018-.045.05-.036.082.009.031.036.058.072.058l.454.019h.009c.032-.005.059-.023.068-.055.004-.036-.01-.072-.04-.086zM12.835 10.521l-.44-.081c-.032-.005-.068.009-.082.04-.013.032-.009.069.018.091.146.127.214.186.304.177a.583.583 0 00.223-.086.076.076 0 00.04-.077c-.009-.032-.031-.059-.063-.064zM4.31 18.326h.063a.126.126 0 00.081-.027c.046-.032.064-.082.078-.123a.315.315 0 01.013-.036.067.067 0 000-.06c-.009-.017-.023-.035-.045-.04-.01-.005-.023-.009-.037-.018-.045-.023-.104-.054-.154-.018a.365.365 0 00-.104.127l-.05.077c-.018.023-.018.054-.004.082.013.027.04.04.068.04.036-.004.068-.004.09-.004zM6.49 12.13a.076.076 0 00-.009.082l.173.34c.009.019.027.032.045.037.009.004.018.004.027.004.01 0 .023-.004.032-.009l.077-.04a.073.073 0 00.036-.082l-.004-.036c-.014-.1-.037-.254-.3-.322a.083.083 0 00-.077.027zM6.35 13.514c.014 0 .023-.004.036-.013a.08.08 0 00.032-.086c-.01-.028-.018-.05-.023-.078-.045-.145-.095-.33-.399-.294-.027.004-.054.022-.063.05-.01.027 0 .059.018.077l.34.317a.055.055 0 00.059.027zM11.157 16.48c.013.018.036.023.059.023.004 0 .013 0 .018-.005l.317-.118a.074.074 0 00.05-.059.083.083 0 00-.023-.072c-.058-.05-.145-.114-.244-.09-.105.026-.16.14-.195.235-.01.032-.005.063.018.086zM3.978 19.192c.018.004.037.013.05.018.032.009.064.023.095.023a.065.065 0 00.046-.019.253.253 0 00.081-.104l.019-.032c.013-.018.018-.04.009-.059-.005-.022-.019-.036-.037-.05a.14.14 0 01-.031-.022c-.046-.027-.096-.064-.155-.037-.05.023-.072.073-.095.118-.009.019-.018.032-.027.05-.014.018-.014.046-.005.068.01.023.028.041.05.046zM14.703 15.56c-.068 0-.131 0-.14.072-.005.063-.005.127-.01.19v.036c0 .041.032.077.073.077l.1.005h.009c.036-.005.068-.032.068-.072l.013-.227a.075.075 0 00-.022-.06.084.084 0 00-.055-.022h-.036zM13.211 11.437l-.04-.01a.703.703 0 00-.146-.017c-.059 0-.081.059-.095.118-.005.018-.014.04-.018.063a.073.073 0 00.009.068.078.078 0 00.059.032h.059c.036 0 .068.004.1 0 .013 0 .031-.005.045-.005.059-.013.073-.072.082-.122 0-.01.004-.023.004-.032a.09.09 0 00-.009-.059.07.07 0 00-.05-.036zM5.48 14.652l.063.01c.054.008.104.017.154.017h.009c.064-.004.082-.081.09-.131.01-.055-.004-.09-.04-.104a.62.62 0 00-.19-.055c-.064-.009-.087.046-.11.095-.008.019-.018.037-.027.055a.062.062 0 000 .068c.005.027.023.04.05.045zM10.295 16.317c-.013-.027-.04-.045-.072-.04a.087.087 0 00-.068.049c-.077.236-.055.281.172.358.01.005.018.005.032.005.018 0 .036-.01.05-.027a.088.088 0 00.013-.082l-.127-.263zM12.35 14.734c.031-.114.027-.204-.018-.272-.064-.095-.191-.127-.295-.14a.076.076 0 00-.077.036.084.084 0 00.004.086l.25.317c.013.018.04.032.063.027h.01c.035-.004.058-.027.063-.054zM7.474 13.623a.31.31 0 00.046-.122c.004-.05-.023-.091-.046-.118-.004-.01-.009-.014-.013-.023a.07.07 0 00-.06-.036c-.022 0-.049.009-.063.027l-.027.036a.547.547 0 00-.081.118c-.028.054.013.1.05.14.013.014.027.032.045.05.013.019.04.032.063.028h.005c.027-.005.05-.018.059-.041.004-.023.013-.04.022-.059zM7.583 14.09c-.009.031.01.063.037.081.013.01.027.01.045.01s.032-.01.045-.019l.282-.258c.022-.018.031-.055.022-.082a.074.074 0 00-.068-.05c-.267-.018-.326.15-.363.318zM12.091 10.816l-.04-.027a.09.09 0 00-.069-.014.09.09 0 00-.05.05l-.04.127a.088.088 0 00.004.059c.01.018.027.032.045.036l.186.055a.057.057 0 00.028.004.074.074 0 00.04-.013.066.066 0 00.028-.064v-.018a.129.129 0 00-.028-.109.964.964 0 00-.104-.086zM6 16.974l.037.06a.08.08 0 00.068.036c.027 0 .05-.019.064-.041.013-.023.022-.046.031-.064.028-.045.05-.09.028-.136a.371.371 0 00-.127-.136c-.055-.04-.11.005-.136.027-.023.018-.078.064-.05.118.027.046.05.086.086.136zM11.298 17.255a.067.067 0 00.018.06l.072.076a.075.075 0 00.055.023h.004c.018 0 .037-.009.05-.023l.14-.145a.076.076 0 00.005-.1l-.04-.05c-.023-.031-.069-.036-.1-.013l-.173.113a.108.108 0 00-.031.06zM12.595 15.051c-.064-.013-.091.046-.114.086l-.013.028c-.01.018-.014.036-.01.059a.083.083 0 00.032.045l.145.09c.014.01.032.014.046.01.009 0 .013 0 .022-.005a.071.071 0 00.046-.05c.004-.018.009-.031.013-.045.018-.05.037-.104-.009-.14a.325.325 0 00-.158-.078zM9.774 8.072c.027.023.063.05.109.05h.009c.04-.004.072-.027.104-.05.014-.009.023-.018.036-.027a.08.08 0 00.037-.068c0-.027-.019-.05-.041-.063a.185.185 0 00-.041-.023.262.262 0 00-.118-.04c-.05.004-.081.035-.104.063l-.018.018c-.018.013-.028.04-.028.063a.07.07 0 00.037.06l.018.017zM10.164 14.553l-.005.113c0 .023.005.04.018.054a.075.075 0 00.055.023c.009 0 .018 0 .027.005.018 0 .036.004.059.004a.1.1 0 00.059-.018c.045-.027.05-.082.054-.118 0-.009 0-.018.005-.023a.072.072 0 00-.014-.059.086.086 0 00-.05-.031l-.118-.018c-.022-.005-.04.004-.059.018-.018.009-.027.027-.031.05zM10.418 16.748c-.01.009-.018.022-.027.031-.018.018-.023.05-.018.073a.069.069 0 00.054.05c.014.004.023.009.036.009.032.009.068.022.109.018.014 0 .023-.005.036-.01.05-.017.073-.063.1-.108l.036-.063c.014-.023.018-.055.005-.078a.084.084 0 00-.068-.04h-.064c-.04 0-.081-.005-.113.022-.032.032-.059.068-.086.096zM13.91 10.72l-.018.023a1.464 1.464 0 00-.078.1c-.04.06.01.104.041.132l.032.031a.067.067 0 00.059.018h.005a.09.09 0 00.054-.036l.023-.036c.022-.036.04-.073.058-.109.023-.054-.022-.095-.05-.118l-.013-.013a.083.083 0 00-.054-.023.118.118 0 00-.06.032zM12.771 8.2c-.009-.005-.013-.01-.022-.014-.032-.023-.073-.05-.123-.036a.174.174 0 00-.09.077c-.005.009-.014.013-.019.022a.086.086 0 00-.022.06c0 .022.013.04.027.054l.09.068a.051.051 0 00.05.013h.005a.086.086 0 00.05-.031l.077-.105a.078.078 0 00.013-.063c0-.018-.013-.036-.036-.045zM9.452 5.533c.054-.014.072-.068.086-.11.004-.008.004-.017.009-.026a.067.067 0 000-.06.089.089 0 00-.04-.04l-.028-.014c-.032-.018-.077-.04-.127-.031-.05.013-.073.059-.095.095-.005.013-.014.022-.018.036-.014.018-.014.045-.005.068.01.023.027.04.05.045l.04.014a.207.207 0 00.105.023c.005.004.014 0 .023 0zM12.957 9.152c.01.004.014.009.023.013.014.01.032.014.045.014.01 0 .014 0 .023-.005a.07.07 0 00.045-.054l.041-.163a.077.077 0 00-.05-.091l-.104-.032c-.023-.004-.045-.004-.064.01-.018.013-.031.031-.031.054 0 .013-.005.022-.005.036a.364.364 0 00-.009.122c.005.055.055.078.086.096zM6.663 14.598l.145.004h.01c.017 0 .035-.009.044-.022a.084.084 0 00.023-.055v-.022c0-.037.005-.1-.059-.118-.04-.01-.082-.018-.122-.023l-.037-.004a.081.081 0 00-.063.018c-.018.018-.027.04-.023.063l.01.091c.004.036.036.063.072.068zM8.005 15.274a.069.069 0 00-.05-.054c-.013-.005-.022-.01-.036-.014a.487.487 0 00-.123-.032c-.058-.004-.086.046-.104.082-.004.009-.009.018-.013.022a.072.072 0 00-.01.068c.01.023.028.041.05.046l.123.032c.009 0 .018.004.027.004.018 0 .032-.009.045-.018l.073-.064c.018-.018.023-.045.018-.072zM5.947 19.541l.113.027c.009 0 .013.005.023 0a.067.067 0 00.063-.05l.05-.136a.077.077 0 00-.005-.063.09.09 0 00-.054-.036c-.005 0-.01-.005-.018-.005-.027-.009-.077-.018-.114.014-.031.027-.054.063-.077.095l-.022.032c-.014.018-.018.045-.014.072.01.027.027.046.054.05zM13.828 15.541c-.05.005-.072.046-.086.073-.005.004-.005.009-.01.013a.069.069 0 00-.013.06.08.08 0 00.032.05l.023.013a.202.202 0 00.109.05h.009c.045-.005.072-.041.1-.073a.23.23 0 01.031-.036c.018-.018.023-.05.018-.073a.075.075 0 00-.054-.05l-.05-.013c-.04-.01-.073-.018-.109-.014zM11.225 8.857c-.018-.01-.063-.027-.104.009-.023.018-.041.04-.06.063l-.017.019a.067.067 0 00-.018.063c.004.023.018.045.04.054l.073.037c.014.004.027.009.04.009.01 0 .014-.005.023-.005.019-.009.037-.022.041-.045l.037-.1c.013-.045-.019-.09-.055-.104zM8.114 14.716l.037.031a.086.086 0 00.058.023c.005 0 .01 0 .014-.005a.082.082 0 00.054-.054l.014-.045a.253.253 0 00.014-.1c-.005-.05-.055-.082-.077-.09-.037-.019-.064-.019-.091-.005-.032.018-.109.081-.086.154.009.04.036.063.063.09zM3.724 20.14c-.013-.023-.031-.037-.059-.037a.067.067 0 00-.063.023l-.014.014c-.022.018-.059.054-.054.104.004.036.018.068.032.1l.013.031c.01.023.032.041.06.046h.013c.022 0 .04-.014.054-.028.01-.009.014-.018.023-.027.023-.027.054-.059.045-.109a.308.308 0 00-.045-.095c.004-.009 0-.018-.005-.022zM10.2 8.952c-.009.005-.022.005-.032.01-.031.008-.063.018-.095.04-.04.032-.04.077-.036.109v.018c0 .023.004.046.023.064a.067.067 0 00.058.018h.005l.027-.005c.032-.004.064-.009.1-.022.055-.023.05-.078.05-.118v-.037c0-.022-.01-.05-.032-.063a.063.063 0 00-.068-.014zM13.143 15.296c-.022-.027-.063-.077-.122-.045a.346.346 0 00-.077.059l-.018.018a.065.065 0 00-.028.055c0 .022.005.04.019.054l.054.059a.103.103 0 00.054.027h.01c.018 0 .031-.009.045-.018l.082-.077a.075.075 0 00.022-.055c0-.018-.004-.04-.022-.054l-.019-.023zM12.096 12.91a.035.035 0 01-.018-.008c-.028-.014-.069-.032-.11-.018a.187.187 0 00-.085.063c-.005.005-.01.014-.019.018a.084.084 0 00-.022.073c.009.027.027.05.054.054l.104.023c.01 0 .014.005.023 0 .018 0 .036-.01.05-.027l.054-.064a.076.076 0 00.019-.068c-.01-.018-.023-.04-.05-.045zM13.433 9.247c-.009-.004-.013-.009-.022-.014a.078.078 0 00-.077-.004c-.023.014-.041.036-.041.063l-.005.096c0 .018.005.04.018.054l.06.064a.06.06 0 00.058.022h.014c.027-.004.045-.027.054-.054 0-.01.005-.018.01-.027.013-.032.027-.073.013-.118-.005-.041-.05-.064-.082-.082zM17.03 11.582c-.06-.013-.09.037-.109.064-.005.004-.01.013-.014.018-.013.018-.018.04-.013.059a.07.07 0 00.036.05l.118.072c.014.01.027.014.045.01.023 0 .041-.014.055-.032l.059-.077a.079.079 0 00.013-.064.071.071 0 00-.045-.05l-.036-.009c-.037-.013-.068-.031-.11-.04zM9.343 14.988c.046-.005.073-.04.09-.063.005-.005.01-.01.01-.014a.081.081 0 00.018-.064.081.081 0 00-.04-.054l-.028-.014c-.027-.013-.059-.031-.095-.04-.055-.01-.086.031-.109.063a.123.123 0 01-.023.027.063.063 0 00-.013.068.063.063 0 00.05.05l.031.014a.232.232 0 00.1.027h.01zM7.774 9.374a.073.073 0 00.04-.014.087.087 0 00.033-.063V9.26c0-.036 0-.09-.055-.113a.826.826 0 00-.113-.032l-.036-.009a.079.079 0 00-.064.014.073.073 0 00-.027.059v.018c-.005.032-.01.086.045.113a.843.843 0 00.114.046l.04.013c0 .005.01.005.023.005zM5.652 17.577a.09.09 0 00-.064.027c-.004.005-.009.01-.014.01-.018.018-.054.05-.05.1a.294.294 0 00.032.094l.014.028c.009.022.032.04.054.045h.018c.019 0 .037-.01.05-.023a.121.121 0 01.028-.022c.027-.023.068-.06.05-.114a.222.222 0 00-.046-.086l-.014-.023a.09.09 0 00-.058-.036zM8.558 6.354l-.031-.014c-.023-.01-.046-.005-.068.004a.09.09 0 00-.037.055c0 .009-.004.018-.004.027-.01.036-.018.077.004.123.019.04.06.058.096.077.013.004.027.013.036.018.014.009.027.009.04.009.01 0 .014 0 .023-.005a.088.088 0 00.046-.045c.004-.018.013-.032.018-.05.023-.054.04-.113-.01-.15a.31.31 0 00-.113-.05zM11.547 15.165a.064.064 0 00-.01.027c-.008.018-.013.046-.004.064a.088.088 0 00.046.045l.104.032c.009.004.018.004.027.004a.07.07 0 00.06-.036l.04-.073c.009-.018.013-.04.004-.059-.004-.018-.022-.036-.04-.045-.01-.004-.014-.009-.023-.014a.195.195 0 00-.109-.036c-.054 0-.077.05-.095.09zM10.88 14.013c.01-.009.018-.023.027-.032.019-.018.023-.04.019-.063-.005-.023-.018-.045-.037-.055-.013-.009-.027-.018-.04-.022-.037-.023-.069-.046-.114-.046s-.081.041-.1.073c-.027.04-.031.077-.018.109a.2.2 0 00.15.109h.014c.045-.005.072-.041.1-.073zM8.663 9.256a.089.089 0 00.04-.059c0-.014.005-.023.005-.036.005-.036.014-.086-.032-.118-.031-.023-.063-.032-.09-.04l-.028-.01c-.022-.01-.045-.005-.068.01a.078.078 0 00-.031.058c0 .005 0 .01-.005.018-.004.027-.013.077.023.109.027.027.059.04.086.054l.027.014c.014.005.027.01.041.01a.065.065 0 00.032-.01zM17.125 14.13a.076.076 0 00-.04.05l-.01.028a.299.299 0 00-.018.095c-.005.064.054.082.09.095.01.005.019.005.032.01.01.004.023.004.032.004a.064.064 0 00.027-.01.072.072 0 00.037-.044l.009-.023c.009-.027.022-.064.022-.104-.004-.06-.059-.078-.1-.091-.008-.005-.018-.005-.022-.01-.014-.008-.036-.008-.06 0z"/></g><path d="M11.057 11.383c.09 1.374-.78 2.313-1.927 2.385-1.143.077-2.132-.739-2.222-2.113a2.085 2.085 0 011.936-2.218 2.085 2.085 0 012.213 1.946z" fill="url(#prefix__paint8_linear)"/><path d="M8.98 13.605a2.081 2.081 0 002.077-2.086c0-1.152-.93-2.086-2.076-2.086a2.082 2.082 0 00-2.077 2.086c0 1.152.93 2.086 2.077 2.086z" fill="url(#prefix__paint9_linear)"/><path d="M8.844 9.438a2.086 2.086 0 00.272 4.163 2.085 2.085 0 001.937-2.218 2.078 2.078 0 00-2.209-1.945zm.263 4.027a1.948 1.948 0 01-.254-3.886 1.94 1.94 0 012.063 1.813c.073 1.075-.739 2-1.809 2.073z" fill="url(#prefix__paint10_linear)"/><path d="M8.458 12.902c0 .045.014.045-.04.054-.014 0-.014.01-.014.018 0 .027-.023.046-.04.041-.01-.005-.023-.014-.028-.023-.005-.009-.014-.027.01-.031l.004-.005c0-.018.009-.013.022-.013.014 0 .018-.005.014-.019 0-.013-.005-.027-.005-.04 0-.01 0-.023.014-.023.004 0 .004 0 .009-.005.018-.018.032-.004.05 0 .004 0 .004.01.004.014v.032zM7.198 12.258c0-.014.013-.037.022-.041h.01c.004 0 .009.004.013.004.014.005.027.01.027.027 0 .01.01.014.014.014h.027c.014 0 .032-.009.04.014.005.004.015.009.015.022 0 .01 0 .014-.014.019-.01 0-.014.009-.018.013-.01.01-.014.01-.023 0a.014.014 0 00-.018 0c-.005 0-.014.01-.014.01-.009-.005-.018-.014-.027-.023-.009-.01-.018-.023-.032-.028-.018-.004-.018-.004-.022-.031zM10.572 10.938c0-.018.018-.04.04-.04.01 0 .037.018.037.031.004.018.014.023.027.023h.018c.023-.01.036.004.05.018l.005.01a.089.089 0 01-.041.04h-.01c-.008-.01-.017-.014-.027 0h-.013a.09.09 0 01-.04-.04c-.005-.005-.01-.005-.014-.01-.028 0-.032-.005-.032-.032zM8.227 11.999c-.004.014.005.023.018.023.01 0 .014.004.018.013.005.01.01.014.014.018.01.01.01.014 0 .019-.005 0-.005.004-.01.004-.004.005-.004.014-.008.018a.063.063 0 01-.041 0c-.005 0-.009-.009-.009-.013-.005-.014-.005-.028-.005-.046 0-.013-.004-.018-.018-.018h-.022a.04.04 0 01-.041-.04c0-.014.013-.014.018-.019.004-.009.009-.013.023-.004.009.004.022.004.031.004.018 0 .028.005.028.023.004.009.004.014.004.018zM10.635 10.503c-.009 0-.027 0-.032-.005-.004-.013-.004-.032-.004-.05 0-.004.014-.009.018-.013.01-.01.014-.005.018 0 .018.009.032 0 .032-.023 0-.027.018-.04.045-.032.005 0 .01.005.01.01.008.017.008.036.004.05 0 .004-.01.008-.018.013-.01.004-.018 0-.027.004-.005 0-.01.005-.014.01 0 .031 0 .031-.032.036zM9.601 12.815c.037 0 .037 0 .041.032 0 .014 0 .032.018.04.005.005.005.014.005.024 0 .009 0 .013-.01.018-.008.004-.004.018-.017.018-.01 0-.023.004-.028-.014-.027-.004-.018-.027-.022-.045 0-.005-.005-.014-.01-.014-.017-.009-.017-.027-.004-.04.01-.01.014-.023.027-.019zM7.837 13.11h.032c.009 0 .018 0 .022-.018 0-.005.019-.009.028-.009.022 0 .027.005.031.027 0 .023-.004.027-.022.032h-.023c-.014 0-.032-.01-.027.018-.014.01-.018.027-.04.023-.02-.005-.02-.018-.028-.027-.005-.005-.005-.019.004-.028 0-.009.005-.022.023-.018zM7.678 11.106c.032-.005.037 0 .046.027 0 .005.004.01.009.01a.01.01 0 00.009-.01c.009-.013.027-.013.04 0l.005.005c.018.009.018.027.005.04-.005.005-.01.014-.018.019-.018.004-.041-.005-.046-.023-.004-.014-.013-.014-.022-.009-.01 0-.014 0-.023.005-.018.004-.023-.019-.036-.023v-.005a.095.095 0 01.018-.027c0-.009.009-.009.013-.009zM9.533 9.945c.01.004.014.009.023.013.013.005.023.01.036.01.023 0 .04.018.04.036 0 .009 0 .018-.013.018-.004 0-.004.005-.009.009-.009.014-.022.014-.031.005a.035.035 0 00-.019-.01c-.009-.004-.018 0-.027-.013 0-.005-.009-.005-.018-.005-.014-.004-.027-.018-.023-.031a.091.091 0 01.041-.032zM9.257 9.614c.004.032-.01.04-.041.04-.01 0-.018 0-.018.014 0 .005-.005.005-.01.01-.004.004-.008.008-.013.008-.004.005-.004.005-.009.005-.01-.014-.032-.014-.032-.036 0-.027.005-.037.032-.037.018 0 .027-.004.027-.027 0-.004.01-.009.014-.013h.004c.037-.005.046 0 .046.036zM10.24 10.466c.019 0 .032 0 .05-.004.014 0 .032.018.032.027v.036c0 .005-.004.01-.009.01-.018 0-.032.008-.05-.005-.004-.005-.013 0-.018 0-.009.014-.013.014-.023 0l-.004-.005c-.005-.004-.018-.004-.018-.009 0-.013-.005-.027 0-.04.013-.005.032-.005.04-.01zM10.472 11.183c0 .018 0 .032-.005.04a.1.1 0 01-.04.046h-.005c-.009-.01-.023-.014-.032-.023-.004-.013-.004-.027-.004-.045a.094.094 0 01.04-.059c.005-.005.023.01.032.018.014.01.014.018.014.023zM7.77 12.82c.008 0 .022-.004.026.014.005.009.019.018.028.023.018.004.013.018.018.031 0 .014.004.028-.014.032l-.004.005c-.005.013-.005.009-.014.004-.01-.009-.023-.013-.032-.023-.013-.013-.032-.018-.032-.045-.013-.036-.009-.04.023-.04zM9.501 13.305c0 .023-.013.041-.036.041-.013 0-.022 0-.022.018 0 .005-.014.01-.019.01-.031.004-.04 0-.04-.033 0-.022 0-.027.027-.027h.022c.005 0 .01-.004.01-.009.009-.027.013-.032.04-.032.018.005.014.023.018.032zM10.463 12.095h.018c.027 0 .045.027.032.05a.078.078 0 01-.028.027c-.018.004-.036.004-.054.004-.014 0-.014-.036-.004-.05 0-.004.004-.004.004-.004-.004-.032.018-.023.032-.027zM8.821 11.713a.1.1 0 01.077.032c.005.01.01.014 0 .018-.004 0-.004.005-.009.01-.009.018-.022.022-.04.008-.01-.004-.019-.004-.032-.004-.027 0-.027 0-.027-.027v-.014c0-.014.004-.023.022-.023h.01zM9.982 10.267c0 .009 0 .018-.004.022a.025.025 0 01-.023.014c-.01 0-.018-.005-.027-.01-.014-.008-.018-.017-.032-.03-.014-.01-.018-.019 0-.033.01-.009.018-.022.027-.031.005-.005.014 0 .018.004.005 0 .01.01.014.01l.009.008c.005.014.023.023.018.046zM8.926 10.53c0 .014 0 .027-.019.027-.004 0-.009.01-.013.014-.01.01-.032.01-.036 0 0-.004-.005-.004-.005-.009-.023-.014-.018-.018-.005-.04.014-.028.037-.019.06-.024.013 0 .018.005.018.032zM7.923 11.827c0 .027-.013.05-.036.045-.005 0-.01-.004-.014-.009-.009-.009-.013-.018-.022-.023-.01-.009-.005-.036.004-.04.005 0 .005-.005.01-.01.004-.013.017-.008.026-.008.023.009.028.018.032.045zM8.966 10.063c-.027 0-.031-.005-.036-.032 0-.036.005-.04.036-.045.023 0 .041.013.046.036 0 .027-.018.04-.046.04zM8.58 11.405c-.004.01-.004.027-.008.032-.014.005-.036.009-.046.005-.013-.01-.031-.019-.027-.041.005-.018.041-.046.05-.032.01.004.036.014.032.036zM7.565 11.727c0 .01 0 .027-.004.027a.163.163 0 01-.046.01c-.009 0-.027-.032-.027-.041 0-.019.014-.028.023-.037.009-.004.022-.009.036.01.01.008.018.013.018.031zM9.388 12.476c-.004.022-.027.045-.045.04-.023-.004-.046-.045-.037-.068l.019-.013c.009-.014.013.004.018.004.013 0 .022.005.027.018.01.005.014.01.018.019zM9.057 12.362c.01.005.023-.01.032.01.009.022.004.04-.01.049-.008.005-.013.018-.026.014a.035.035 0 01-.018-.01c-.005 0-.005-.004-.01-.009-.013-.009-.018-.022-.004-.036l.004-.004c0-.014.019-.01.032-.014zM9.633 12.43c0 .018.004.032-.014.032 0 .018-.013.018-.027.018-.004 0-.009-.005-.014-.01-.004 0-.004-.008-.004-.008-.023 0-.018-.023-.014-.032.005-.009.014-.027.023-.027a.078.078 0 01.045 0c.005.009.005.027.005.027zM9.184 11.886c.014 0 .027-.005.027.013 0 0 .005.005.01.005.008.009.008.027 0 .032-.005 0-.005.004-.005.004 0 .023-.018.018-.032.018-.014-.004-.023-.018-.032-.027v-.013c0-.023.005-.032.032-.032zM8.39 13.306c0-.019.019-.041.037-.041s.045.027.04.045c-.004.018-.027.032-.045.032-.023 0-.032-.01-.032-.037zM8.44 10.956c-.018 0-.032 0-.032-.022v-.005c-.018-.014-.013-.023 0-.036l.014-.014c.032-.009.045 0 .05.037v.013c-.005.023-.005.027-.032.027zM9.896 13.165c0-.01 0-.028.005-.032.013-.005.031-.01.045-.005.009 0 .018.014.023.023a.024.024 0 01-.01.032c-.004.004 0 .018-.013.018-.027.004-.045-.01-.05-.036zM8.037 11.17c-.023 0-.041-.014-.041-.032 0-.023.018-.041.04-.046.014 0 .032.023.037.041 0 .027-.005.032-.036.036zM8.821 10.29c-.004 0-.022 0-.022-.005a.162.162 0 01-.01-.045c0-.01.014-.018.028-.023.013-.005.022-.005.032.01.009.008.022.013.018.026 0 .005-.005.01-.01.014l-.008.005c.004.022-.01.013-.028.018zM8.082 10.135c0 .027-.018.05-.04.046a.071.071 0 01-.037-.037c0-.018.013-.036.032-.036h.009c.031-.004.036-.004.036.027zM9.352 11.31c.032 0 .036 0 .036.036 0 .018-.013.04-.032.04-.018 0-.045-.022-.045-.04 0-.005 0-.01.005-.01.013-.008.013-.04.036-.027zM7.429 11.437c-.01-.005-.023-.005-.027-.01-.005-.013-.014-.03-.005-.04.01-.009.018-.027.036-.027.019 0 .023.018.032.027.005.005.01.018-.004.032-.01.004-.014.013-.032.018zM9.96 12.951c0 .019-.018.041-.037.041-.013 0-.036-.018-.04-.036 0-.023.018-.04.04-.045.019 0 .037.018.037.04zM9.937 12.312c0-.032.014-.045.04-.045.019 0 .019.022.033.027.004.004.004.018-.005.027-.009.01-.014.023-.032.023-.031 0-.031 0-.036-.032zM8.259 12.775c-.005.013-.01.027-.014.031a.049.049 0 01-.05-.004c-.013-.01-.013-.018-.013-.027 0-.018.027-.041.05-.037.004 0 .004.005.004.005.005.004.014.018.023.032zM8.064 13.133c.018 0 .04.013.04.036 0 .018-.018.04-.036.04s-.036-.017-.036-.04c-.005-.032 0-.036.032-.036zM9.529 11.106v-.014c0-.027.018-.04.045-.032.005 0 .01.005.01.01.004.018.004.04.004.058 0 .005-.005.005-.01.01-.004 0-.008 0-.008.004-.037.005-.041 0-.041-.036zM9.923 12.652c0-.031.018-.045.05-.036.009.005.032.036.027.045a.095.095 0 01-.018.028c-.004.004-.018.004-.023.004-.004 0-.009 0-.009-.004-.027-.023-.027-.023-.027-.037zM9.098 9.9c.032-.005.05.018.04.05 0 .004-.031.027-.036.027-.009 0-.013 0-.018-.01 0-.004-.004-.004-.009-.009-.004-.004-.009-.009-.009-.013v-.018c.018-.005.014-.041.032-.027zM10.68 11.709c0 .018-.013.04-.031.04-.018 0-.045-.018-.045-.036v-.018c.018 0 .013-.027.036-.027.013.009.036.023.04.04zM9.31 10.398c0 .014.005.027-.013.032a.056.056 0 01-.059-.005c-.004-.004-.009-.022-.004-.027.009-.013.022-.027.036-.04h.005c.004.013.018.013.027.018.009.004.004.013.009.022zM10.227 12.308c.018 0 .037.018.041.036 0 .014-.018.036-.032.04-.018 0-.036-.017-.04-.036-.005-.036.004-.04.031-.04zM7.778 10.829s-.004 0 0 0c-.013 0-.031 0-.036-.005-.004-.013-.004-.027-.004-.045v-.004c.009-.01.05-.014.063-.005.01.005.018.036.014.045 0 .005-.005.005-.01.005a.065.065 0 01-.027.009zM9.075 11.21c-.023.014-.027-.018-.04-.022-.01-.005 0-.023.008-.032a.096.096 0 00.023-.014c.005 0 .005-.004.01-.004l.026.013c.005.005.005.014.005.018v.005c0 .032 0 .032-.032.036zM10.354 11.772s-.005 0 0 0c-.036 0-.045-.009-.045-.045 0-.005.004-.01.009-.014.004-.004.009-.004.009-.009.004-.004.009-.009.009-.004.009.004.022.013.031.018.014.009.028.022.019.04a.108.108 0 01-.032.014s0 .005 0 0zM9.61 13.264c.01.018-.009.018-.013.027-.005.019-.018.014-.032.014h-.004c-.01 0-.032-.032-.028-.04 0-.005.005-.01.005-.01.004-.004.009-.004.009-.009.009-.018.027-.018.04-.004.014.004.019.009.023.022.005-.004.005-.004 0 0zM9.606 11.682c-.018 0-.041-.019-.041-.041 0-.014.018-.037.036-.037.023 0 .041.019.041.037 0 .022-.014.04-.036.04zM10.186 12.253c-.009 0-.013-.005-.018-.014-.004-.009-.023-.013-.018-.031 0-.005.004-.01.009-.014l.005-.005c0-.013.009-.013.018-.018.013 0 .013.005.022.014.01.01.018.01.018.023 0 .022-.013.04-.036.045zM8.19 11.523c.019 0 .037.014.042.032 0 .022-.023.045-.041.045-.014 0-.032-.023-.032-.04-.004-.019.014-.037.032-.037zM9.95 12.457c0-.022.028-.045.05-.04.01.004.018.013.027.018.005.004.005.013.005.018 0 .009 0 .018-.014.018-.009 0-.009.023-.027.018-.009 0-.018.005-.018-.009 0-.004-.005-.004-.005-.004-.022.004-.018-.01-.018-.019zM9.18 11.673c.018 0 .036.014.036.032 0 .022-.014.04-.037.045-.013 0-.036-.018-.04-.036.004-.019.022-.041.04-.041zM8.536 9.686c-.032 0-.046-.018-.037-.05v-.004c.005-.009.046-.014.06-.005.017.005.017.019.017.037 0 .013-.013.018-.04.022zM9.429 10.13c.009 0 .032 0 .032.005a.154.154 0 01.004.046.01.01 0 01-.009.009c-.013.004-.027.004-.04.004-.023 0-.032-.009-.032-.031 0-.023 0-.028.027-.028.009-.004.013-.004.018-.004zM7.778 12.643c0 .018-.013.041-.031.041-.019 0-.041-.018-.041-.036 0-.014.018-.037.032-.041.022 0 .04.014.04.036zM10.576 10.793c0-.032.023-.05.055-.036.009.004.018.013.022.022v.014c-.009.013-.022.027-.032.036-.004.005-.008.005-.013.005-.014-.005-.027-.028-.032-.041zM7.107 11.968c0 .013.01.031-.018.036-.032.004-.04.009-.045-.036-.005-.032.004-.041.036-.041.023 0 .023.004.027.04zM9.202 10.634c-.018 0-.036-.013-.04-.036 0-.014.018-.04.031-.04.014 0 .04.022.04.035.01.018-.013.041-.03.041zM10.064 9.814c0 .018-.018.04-.037.04-.013 0-.036-.018-.036-.036s.018-.04.037-.04c.013 0 .036.022.036.036zM9.96 11.741h-.005c-.027 0-.046-.018-.032-.045 0-.005.005-.01.01-.01.008-.004.022-.004.035-.004.023 0 .028.01.032.027 0 .023-.009.027-.04.032zM10.626 12.067h-.009c-.027 0-.04-.027-.032-.05 0-.004.005-.004.005-.004.009-.005.023-.005.032-.01.031 0 .045.014.036.046-.005.018-.023.014-.032.018zM10.531 12.752c-.014 0-.036-.018-.04-.031 0-.018.017-.046.036-.046.013 0 .036.023.036.041.004.014-.014.036-.032.036zM10.2 11.038c.022 0 .032.009.032.036 0 .027-.01.036-.032.04-.023 0-.032-.008-.032-.04 0-.027.005-.036.032-.036zM10.15 10.475c-.032 0-.046-.018-.036-.045.004-.009.013-.014.018-.023.009-.013.013 0 .022 0 .005 0 .01.005.014.005.01 0 .023.004.018.018 0 .01 0 .018-.009.027-.009.014-.018.018-.027.018zM7.687 9.99c-.031 0-.05-.023-.04-.05.004-.009.018-.018.031-.022.014-.01.019.009.023.018.005.004.005.009.01.013.008.01.008.014 0 .023-.01.004-.005.027-.024.018zM10.463 12.525c-.018.01-.027-.013-.041-.018 0 0-.005-.013 0-.013a.29.29 0 01.04-.037c.005-.004.028.005.028.01a.155.155 0 01.005.045c0 .004-.014.009-.023.009 0 .004-.005.004-.01.004zM7.756 11.632v.009c0 .027-.005.027-.028.031-.022 0-.031-.004-.036-.027-.004-.027.005-.045.023-.045.027-.014.04 0 .04.032zM7.828 10.73c0-.01-.004-.023.014-.027 0 0 .004-.005.004-.01.005-.008.014-.008.014-.004.004.014.013.01.023.01.009 0 .013.004.018.013 0 .009.004.018-.005.022-.009.005-.013.018-.027.023-.032.01-.036.005-.04-.027zM8.758 10.915c0 .014-.01.037-.023.041-.01.005-.032 0-.032-.014-.004-.018-.004-.036-.004-.054 0-.005.004-.005.009-.01h.013c.032 0 .037.005.037.037zM10.821 11.192h.01c.027 0 .031.004.031.032 0 .018-.005.027-.023.027-.004 0-.013 0-.018.004-.027 0-.036-.004-.036-.036 0-.023.004-.027.036-.027zM8.603 11.224c.005.014-.013.018-.013.023-.005.018-.018.013-.027.013-.005 0-.01-.004-.014-.009-.004-.004-.004-.009-.009-.009-.018-.005-.01-.018-.014-.032 0-.004.028-.027.032-.027.023 0 .04.018.045.04zM8.526 11.636h-.013c-.014 0-.023-.004-.018-.018v-.004c0-.014 0-.028.004-.032a.054.054 0 01.064 0c.004.004.009.027.004.027-.013.01-.018.037-.04.027zM7.552 10.353c-.037.005-.05-.014-.041-.05a.01.01 0 01.009-.009c.013 0 .032-.004.045-.004.01 0 .018.009.023.013.004.01.009.023-.01.032-.008.004-.013.023-.026.018zM7.334 10.975c-.032 0-.036-.005-.036-.037 0-.018.018-.036.036-.04.013 0 .036.027.036.04 0 .01-.004.023-.013.027-.005.01-.014.005-.023.01zM8.214 12.399c0-.028.004-.041.027-.037.013.005.027.014.04.018.005.01-.017.05-.027.05-.031.01-.04.005-.04-.031zM8.703 10.394c.005.013-.013.013-.013.022-.005.014-.014.014-.023.014-.005 0-.009-.004-.014-.009-.004 0-.004-.005-.009-.009-.018-.01-.018-.027-.004-.036.009-.005.004-.023.022-.023a.061.061 0 01.041.04zM10.182 12.743c.018 0 .04.018.04.036s-.018.036-.036.04c-.018 0-.036-.017-.04-.036 0-.018.018-.04.036-.04zM7.139 11.496h-.005c-.027 0-.04-.018-.032-.046.014-.004.028-.009.041-.009.01 0 .023-.004.027.014a.05.05 0 010 .036c-.004 0-.018 0-.031.005zM9.325 9.532c.027 0 .05.023.045.046a.04.04 0 01-.027.027c-.014.009-.023 0-.032-.014v-.004-.046l.014-.009zM9.814 10.707c0-.019.019-.037.037-.037.013 0 .036.018.036.032 0 .018-.018.041-.036.041-.014.005-.037-.014-.037-.036zM9.705 10.766l.01-.01.009-.008c.009-.019.027-.023.04-.005.01.01.023.018.019.032 0 .004-.005.009-.01.013-.004.01-.013.018-.018.018-.009 0-.018-.013-.027-.013-.023 0-.027-.005-.023-.027zM7.202 11.786c-.036.005-.054-.018-.04-.05 0-.004.004-.004.004-.004.018-.01.054-.005.068.013.01.014 0 .032-.014.037-.009 0-.013 0-.018.004zM10.885 11.54h-.01c-.031 0-.036-.004-.031-.035 0-.014.009-.023.022-.023.019 0 .032-.005.046.014.009.009.009.018.009.027-.005.009-.014.013-.018.018h-.018zM8.01 9.931c0-.031.022-.05.05-.04.009.004.009.013.018.018.018.009 0 .013-.005.022-.004.005 0 .014-.004.018-.01.005-.019.028-.032.019-.01-.01-.032-.014-.027-.037zM9.27 12.775c.014.022-.018.022-.023.04h-.004c-.01-.009-.018-.013-.032-.022-.004 0 0-.01-.004-.01-.014-.008-.005-.013 0-.022.009-.023.022-.018.04-.023.014 0 .023.005.023.018-.004.01 0 .014 0 .019zM8.78 13.319c.019-.01.028.014.037.023.009.009 0 .031-.014.031-.013.005-.027.005-.04.005-.014 0-.023-.005-.023-.023 0-.027.004-.032.04-.036zM9.302 13.015c0-.032.005-.04.023-.04s.036.017.036.04-.01.032-.032.032c-.022.004-.027 0-.027-.032zM9.02 10.511c.015-.004.024.005.024.019 0 .013.004.022 0 .036-.005.022-.019.022-.037.013-.013-.009-.022-.018-.022-.036.004-.027.004-.032.036-.032zM9.134 12.693c-.027 0-.032-.005-.036-.032 0-.018.014-.045.032-.045.013 0 .031.022.031.04.005.028 0 .032-.027.037zM9.157 13.142c0-.032.018-.05.045-.046.005 0 .01.01.014.014.004.005.013.01.013.014l-.013.04c-.005.01-.028.005-.032-.004-.005-.005-.014-.005-.018-.01-.01 0-.01-.004-.01-.008zM9.383 11.192c-.009.009-.009.023-.018.032-.013.009-.013.031-.036.031-.009 0-.023-.004-.023-.004 0-.01 0-.023.005-.032.009-.013.023-.027.036-.04.005-.005.018-.005.027-.005l.01.018zM8.1 10.398c0 .027-.023.045-.05.036-.009-.004-.013-.04-.009-.054.005-.014.014-.018.027-.018.018.004.032.022.032.036zM8.64 12.121c0-.022.018-.04.036-.045.032 0 .046.014.041.045v.005c-.005.01-.054.01-.059 0 0-.009-.009-.009-.018-.005zM9.637 11.228c0 .01 0 .018-.004.023-.005.009-.018.014-.027.014-.01.004-.046-.032-.041-.041l.013-.028c.005-.004.014-.004.019-.004.031 0 .036.004.04.036zM10.454 10.979c0-.032 0-.037.027-.037s.032.005.032.032c0 .018-.014.046-.027.046h-.01c0-.023-.031-.023-.022-.041zM8.898 12.802c0-.032.005-.041.032-.041.005 0 .014 0 .018.004.01.01.014.018.018.027.005.01-.031.046-.04.046l-.028-.014c.005-.009.005-.018 0-.022zM7.474 11.804v.014a.055.055 0 01-.022.023c-.014.009-.027 0-.032-.014 0-.009-.004-.018-.004-.027 0-.027.004-.032.031-.032.018 0 .023.005.027.036zM9.08 9.623c0 .027-.018.05-.041.04-.005 0-.014-.004-.014-.008-.004-.019-.004-.032-.004-.05a.01.01 0 01.009-.01c.032-.013.05 0 .05.028zM9.823 10.28c.01 0 .023-.004.028.014 0 .004.009.004.009.009.004.004.004.009.004.014a.293.293 0 01-.036.04h-.005c-.009-.004-.022-.013-.027-.022a.077.077 0 010-.046c0-.004.014-.004.027-.009zM7.483 12.888c0 .027 0 .032-.036.032H7.43c-.009-.01-.018-.018-.018-.027 0-.01.009-.023.013-.028.005-.004.014-.004.023-.004.032-.005.036 0 .036.027zM9.061 12.734h.014c.01 0 .014.004.014.014v.004c.009.036-.005.05-.041.045-.01 0-.032-.022-.032-.031 0-.005.005-.01.005-.01s.004-.004.009-.004c.013-.018.013-.018.031-.018zM9.75 12.221c-.031 0-.031 0-.031-.031 0-.028.005-.032.032-.032.018 0 .045.018.045.027 0 .009-.004.023-.014.027-.013.01-.022.01-.031.01zM8.363 9.922c-.027 0-.032 0-.036-.031v-.028c.014 0 .014-.013.023-.018 0 0 .009 0 .009.005.004.013.031.009.027.036.004.027.004.032-.023.036zM7.053 11.7c-.01 0-.028 0-.032-.005-.005-.014-.005-.027-.005-.04 0-.005.005-.01.01-.01.009-.004.022-.004.036-.004.004 0 .009.004.013.009v.004c0 .01.023.005.014.018-.005.01-.014.01-.014.023 0 0-.018 0-.022.005zM7.751 10.952c0 .018-.014.045-.032.045-.009 0-.022-.013-.031-.018v-.004c-.01-.041.013-.06.05-.046.008 0 .008.014.013.023zM8.259 10.91c-.027 0-.027 0-.032-.03 0-.014.018-.042.027-.042.01.005.023.01.027.014.005.005.005.014.005.023.005.031 0 .036-.027.036zM10.381 10.222a.05.05 0 01.046.027v.004c-.005.023-.046.041-.064.028-.005 0-.005-.005-.005-.01v-.018c-.009-.027-.009-.027.023-.031zM8.459 9.605c0 .004 0 .013-.005.018-.005.009-.018.018-.027.018-.01 0-.023-.01-.027-.014-.005-.004-.005-.018-.005-.027 0-.023.005-.032.032-.032.022 0 .032.01.032.037zM8.078 12.439c0 .027 0 .032-.032.032-.018 0-.046-.018-.046-.028 0-.013.023-.031.041-.031.032-.005.037 0 .037.027zM8.173 11.256c-.028 0-.046-.023-.041-.046 0-.004.004-.009.004-.009.018 0 .037-.004.06 0 .004 0 .008.005.008.01.01.022-.009.045-.031.045zM8.658 11.773c0 .027 0 .031-.027.031-.01 0-.018 0-.023-.004-.009-.005-.013-.014-.018-.023 0 0 0-.004.005-.01.009-.008.009-.026.031-.026.028.004.028.004.032.032zM10.699 11.428c0-.028 0-.032.031-.032.01 0 .019 0 .023.004.01.005.018.014.018.023 0 .01-.004.023-.013.027-.005.005-.014.005-.023.005-.032 0-.036 0-.036-.027zM9.46 11.319c.019 0 .042.013.042.027s-.019.032-.037.032c-.032 0-.036-.005-.036-.032 0-.023 0-.023.032-.027zM8.808 11.378c0-.032 0-.032.031-.036.028 0 .032.004.032.031 0 .019-.018.046-.032.046-.013-.005-.031-.023-.031-.04zM10.236 12.942c-.004.01-.004.023-.009.027-.013.005-.032.005-.045.005 0 0-.005-.005-.005-.009 0-.014-.004-.023 0-.036 0-.005.005-.01.01-.014l.013-.013c.005 0 .005-.005.01-.005l.004.005c0 .013.031.009.022.031-.004 0-.004.005 0 .01zM7.552 12.344c-.019 0-.041-.018-.041-.036 0-.014.009-.018.018-.023.009-.005.018-.005.032-.005.009 0 .022-.004.022.01 0 .009.01.027-.009.036-.009.004-.009.027-.022.018zM8.962 11.092c0 .005 0 .023-.01.023-.013.005-.031.005-.045.005 0 0-.004-.005-.004-.01-.01-.027-.005-.045.018-.063.004 0 .009-.005.009-.005.01.005.018.014.023.019.009.013.009.018.009.031zM7.91 12.212c.032 0 .032 0 .036.032 0 .018-.013.046-.027.046s-.036-.028-.036-.046c-.005-.022 0-.027.027-.032zM8.427 10.312c0 .027-.023.05-.046.041-.004 0-.004-.005-.004-.005-.005-.013-.005-.031-.005-.05 0-.004.005-.018.014-.018.009-.004.023-.009.027.01 0 .009.018.009.014.022zM9.325 13.319c0 .018-.014.04-.028.04-.013 0-.031-.017-.031-.036 0-.031 0-.036.027-.04.023 0 .027.004.032.036zM7.547 12.044c0-.031 0-.031.032-.031.027 0 .032 0 .032.031 0 .019-.014.046-.028.041-.009 0-.018-.004-.027-.013-.009-.005-.009-.018-.009-.028zM9.71 9.764c-.032 0-.036 0-.036-.032 0-.023.004-.032.031-.032.014 0 .041.014.041.027 0 .01-.004.019-.013.028-.005.004-.014.004-.023.009zM9.987 10.952c-.005 0-.014 0-.018-.005-.01-.004-.019-.013-.019-.022-.004-.014.023-.037.041-.037.023 0 .037.01.037.032-.005.032 0 .032-.041.032zM10.21 11.954c-.024 0-.028 0-.028-.032 0-.009 0-.018.004-.022.005-.01.019-.014.028-.014.009 0 .018.01.027.014.004.004.004.013.004.022 0 .028-.004.032-.036.032zM8.699 13.296c0 .028 0 .032-.032.032-.027 0-.032 0-.032-.027 0-.032 0-.032.027-.036.032 0 .037 0 .037.031zM10.79 12.493c0 .027-.005.032-.032.032-.019 0-.046-.018-.046-.032 0-.004 0-.009.005-.009.013-.004.018-.027.036-.023.032.005.036.005.036.032zM8.68 10.317c-.004 0-.013 0-.017-.005a.054.054 0 01-.023-.022c-.005-.01.023-.032.036-.032.032-.005.036 0 .036.027.005.027.005.027-.031.032zM7.551 12.72c0 .028-.018.046-.05.037-.004 0-.004-.005-.004-.005-.009-.023-.004-.054.018-.068.005 0 .01-.004.01 0 .008 0 .026.023.026.036zM8.481 13.242v-.018a.095.095 0 01.027-.018c.014-.005.032.022.032.04 0 .028-.004.032-.027.032-.027 0-.027.005-.032-.036zM9.578 12.13v.019c0 .009.005.018-.009.018-.009 0-.022.009-.031-.01-.005-.008-.018-.017-.018-.03 0-.024.018-.037.036-.037.013 0 .018.004.018.018 0 .014.004.023.004.023zM9.302 12.23v.019c0 .009.004.018-.01.018-.008 0-.022.01-.03-.009-.005-.01-.02-.018-.02-.032 0-.023.02-.036.037-.036.014 0 .018.005.018.018 0 .01 0 .018.005.023zM9.356 10.857v.018c0 .009.005.018-.009.018-.009 0-.022.01-.031-.01-.005-.008-.019-.017-.019-.03 0-.024.018-.037.037-.037.013 0 .018.004.018.018 0 .014.004.018.004.023zM8.671 11.723c-.031 0-.036-.005-.04-.032 0-.023.004-.027.031-.032.018 0 .046.014.041.027 0 .01-.004.018-.013.028-.005.009-.014.009-.019.009zM9.501 13.038c0-.032.019-.05.046-.041.004 0 .004.005.009.005.009.018.004.054-.014.067-.004.005-.009.005-.013.005-.01-.005-.018-.009-.028-.018v-.018zM8.536 12.58c0 .031 0 .031-.023.036-.032 0-.036-.005-.036-.032 0-.022.004-.027.031-.027.028-.005.028-.005.028.023zM10.29 10.19c.032 0 .032 0 .037.032 0 .022-.005.031-.032.031-.005 0-.014 0-.018-.004-.01-.01-.018-.018-.018-.027 0-.01.004-.023.013-.027 0-.005.014-.005.018-.005zM7.66 10.48c.014 0 .037.018.041.027 0 .014-.022.032-.036.032-.027 0-.036-.005-.036-.027-.005-.01.013-.027.031-.032zM8.436 10.716c0 .032 0 .032-.028.032-.027 0-.031 0-.031-.037 0-.022 0-.022.027-.027.027 0 .027 0 .032.032zM8.118 11.723c.027 0 .032 0 .032.031 0 .01 0 .019-.005.023-.004.01-.018.014-.027.018-.009.005-.032-.027-.032-.04.005-.028.005-.032.032-.032zM10.363 12.435c-.027 0-.027 0-.027-.032 0-.027 0-.027.032-.032.027 0 .031 0 .031.032-.004.027-.004.032-.036.032zM10.095 12.43c.028 0 .028 0 .032.032 0 .027-.004.032-.032.032-.027 0-.031-.005-.031-.032s0-.032.031-.032zM10.227 10.194c-.018.01-.023-.014-.036-.023v-.004c.009-.01.013-.023.023-.027.013-.005.027 0 .04 0 0 0 .005.004.005.009.009.023-.005.045-.032.045z" fill="#FF4E0D"/><path d="M8.64 12.117c0 .014 0 .027.004.041 0 .014-.004.018-.013.018h-.018a.161.161 0 01-.028-.004v-.046c0-.004.019-.004.028-.004.013-.005.022-.005.027-.005zM9.755 11.287c0 .027 0 .032-.022.032-.027 0-.036 0-.036-.032 0-.023.004-.027.027-.032.027.005.031.01.031.032zM10.218 11.396c0 .027 0 .032-.023.032-.027 0-.036 0-.036-.032 0-.023.005-.027.027-.032.027 0 .032.005.032.032zM8.703 13.083c0-.027 0-.032.023-.032.027 0 .032.005.036.032 0 .023 0 .027-.031.027-.028 0-.028 0-.028-.027zM7.742 12.08c0-.008 0-.017.004-.022.005-.009.014-.014.028-.018.018-.004.036.027.031.045 0 .005-.004.005-.009.01-.009.004-.022.004-.027.018-.004.004-.013.004-.013-.005-.01-.01-.014-.018-.014-.027zM8.785 12.38s-.009-.004-.014-.009c-.004-.004-.009-.004-.009-.004-.009-.005-.013-.028-.004-.032h.009c.009.004.018.004.027.009.005.005.014.01.014.014 0 .009.004.027-.014.027.005-.005 0-.005-.009-.005zM8.948 12.525c.028 0 .046.023.032.05 0 .005-.009.01-.009.005-.009-.005-.018-.014-.027-.023 0 0 0-.004-.005-.009-.004-.005-.018-.005-.013-.018.004 0 .013 0 .022-.005zM7.515 12.13h.014c.009 0 .013.005.022.01-.004.005-.009.009-.009.013-.004.014-.013.023-.027.019a.082.082 0 01-.032-.023s.005-.01.005-.014c.004-.004.014-.004.027-.004zM9.646 11.954c.005.004.01.004.014.009-.004.004-.009.009-.018.009-.005 0-.01-.005-.018-.005a.099.099 0 00.022-.013z" fill="#FF4E0D"/><path d="M16.903 13.17c.09 1.373-.78 2.312-1.928 2.385-1.142.077-2.131-.74-2.222-2.114a2.084 2.084 0 011.937-2.217 2.088 2.088 0 012.213 1.945z" fill="url(#prefix__paint11_linear)"/><path d="M14.83 15.396a2.081 2.081 0 002.078-2.086c0-1.152-.93-2.086-2.077-2.086a2.082 2.082 0 00-2.077 2.086c0 1.152.93 2.086 2.077 2.086z" fill="url(#prefix__paint12_linear)"/><path d="M14.694 11.228a2.086 2.086 0 00.272 4.163 2.085 2.085 0 001.937-2.217 2.08 2.08 0 00-2.209-1.946zm.263 4.023a1.948 1.948 0 01-.254-3.886 1.94 1.94 0 012.064 1.813 1.945 1.945 0 01-1.81 2.073z" fill="url(#prefix__paint13_linear)"/><path d="M14.304 14.689c0 .045.014.045-.04.054-.014 0-.014.01-.014.018 0 .028-.023.046-.041.041-.01-.004-.023-.013-.028-.022-.004-.01-.013-.028.01-.032l.004-.005c0-.018.01-.013.023-.013s.018-.005.013-.019c0-.013-.004-.027-.004-.04 0-.01 0-.023.013-.023.005 0 .005 0 .01-.005.018-.018.031-.004.05 0 .004 0 .004.01.004.014v.032zM13.043 14.05c0-.014.014-.037.023-.042h.009c.005 0 .009.005.014.005.013.004.027.009.027.027 0 .01.009.014.013.014h.028c.013 0 .031-.01.04.013.005.005.014.01.014.023 0 .009 0 .014-.014.018-.009 0-.013.01-.018.014-.009.009-.013.009-.022 0-.005-.005-.014-.005-.019 0-.004 0-.013.009-.013.009-.01-.005-.018-.014-.027-.023-.01-.009-.019-.023-.032-.027-.018-.005-.018-.005-.023-.032zM16.417 12.73c0-.018.018-.041.041-.041.01 0 .036.018.036.032.005.018.014.022.027.022h.019c.022-.009.036.005.05.018l.004.01a.09.09 0 01-.04.04h-.01c-.009-.009-.018-.013-.027 0h-.014a.09.09 0 01-.04-.04c-.005-.005-.01-.005-.014-.01-.027-.004-.032-.009-.032-.031zM14.073 13.786c-.005.014.004.023.018.023.009 0 .013.004.018.013.004.01.009.014.013.019.01.009.01.013 0 .018-.004 0-.004.004-.009.004-.004.005-.004.014-.009.018a.063.063 0 01-.04 0c-.005 0-.01-.009-.01-.013-.004-.014-.004-.027-.004-.046 0-.013-.005-.018-.018-.018h-.023a.04.04 0 01-.04-.04c0-.014.013-.014.017-.019.005-.009.01-.013.023-.004.01.004.023.004.032.004.018 0 .027.005.027.023.005.014.005.014.005.018zM16.48 12.294c-.009 0-.027 0-.031-.004-.005-.014-.005-.032-.005-.05 0-.005.014-.01.018-.014.01-.009.014-.004.019 0 .018.01.031 0 .031-.023 0-.027.018-.04.046-.031.004 0 .009.004.009.009a.066.066 0 01.004.05c0 .004-.009.009-.018.013-.009.005-.018 0-.027.005-.005 0-.01.004-.014.009 0 .027 0 .032-.031.036zM15.451 14.607c.037 0 .037 0 .041.031 0 .014 0 .032.018.041.005.005.005.014.005.023s0 .014-.01.018c-.008.005-.004.018-.018.018-.009 0-.022.005-.027-.013-.027-.005-.018-.028-.022-.046 0-.004-.005-.013-.01-.013-.018-.01-.018-.028-.004-.041.005-.014.014-.023.027-.018zM13.682 14.897h.032c.01 0 .018 0 .023-.018 0-.004.018-.009.027-.009.023 0 .027.005.032.027 0 .023-.005.027-.023.032h-.022c-.014 0-.032-.009-.028.018-.013.01-.018.027-.04.023-.019-.005-.019-.018-.028-.027-.004-.005-.004-.018.005-.027 0-.01.009-.019.022-.019zM13.524 12.893c.032-.005.036 0 .045.027a.01.01 0 00.01.009c.004 0 .008-.005.008-.01.01-.013.028-.013.041 0l.005.005c.018.01.018.028.004.041-.004.005-.009.014-.018.018-.018.005-.04-.004-.045-.022-.005-.014-.014-.014-.023-.01-.009 0-.014 0-.023.005-.018.005-.022-.018-.036-.022v-.005a.097.097 0 01.018-.027c.005-.01.014-.01.014-.01zM15.383 11.732l.023.014c.013.004.023.009.036.009.023 0 .041.018.041.036 0 .009 0 .018-.014.018-.004 0-.004.005-.009.01-.009.013-.022.013-.031.004a.034.034 0 00-.018-.01c-.01-.004-.019 0-.028-.013 0-.005-.009-.005-.018-.005-.014-.004-.027-.018-.023-.031a.076.076 0 01.041-.032zM15.107 11.401c.004.032-.01.04-.041.04-.01 0-.018 0-.018.014 0 .005-.005.005-.01.01-.004.004-.008.009-.013.009-.005.004-.005.004-.01.004-.008-.014-.03-.014-.03-.036 0-.027.004-.036.03-.036.019 0 .028-.005.028-.028 0-.004.01-.009.014-.013h.004c.037 0 .041.004.046.036zM16.09 12.258c.019 0 .032 0 .05-.005.014 0 .032.019.032.028v.036c0 .004-.004.009-.009.009-.018 0-.032.01-.05-.005-.004-.004-.013 0-.018 0-.009.014-.013.014-.022 0l-.005-.004c-.005-.005-.018-.005-.018-.01 0-.013-.005-.026 0-.04.014-.005.027-.009.04-.009 0 0 0-.005 0 0zM16.317 12.974c0 .018 0 .032-.004.041a.099.099 0 01-.041.045h-.005c-.009-.009-.022-.013-.031-.022-.005-.014-.005-.027-.005-.046a.094.094 0 01.041-.059c.005-.004.023.01.032.019.013.004.013.018.013.022zM13.615 14.607c.009 0 .022-.005.027.014.004.009.018.018.027.022.018.005.014.018.018.032 0 .014.005.027-.013.032l-.005.004c-.005.014-.005.01-.014.005-.009-.01-.022-.014-.031-.023-.014-.013-.032-.018-.032-.045-.01-.032-.01-.037.023-.041zM15.347 15.097c0 .022-.014.04-.036.04-.014 0-.023 0-.023.019 0 .004-.014.009-.018.009-.032.004-.041 0-.041-.032 0-.023 0-.027.027-.027h.023c.004 0 .009-.005.009-.01.009-.027.014-.031.04-.031.019 0 .014.023.019.032zM16.308 13.881h.019c.027 0 .045.028.031.05a.078.078 0 01-.027.027c-.018.005-.036.005-.054.005-.014 0-.014-.036-.005-.05 0-.004.005-.004.005-.004 0-.032.018-.023.031-.028zM14.671 13.505a.1.1 0 01.078.032c.004.009.009.013 0 .018-.005 0-.005.004-.01.009-.009.018-.022.022-.04.009-.01-.005-.018-.005-.032-.005-.027 0-.027 0-.027-.027v-.013c0-.014.004-.023.022-.023h.01zM15.832 12.058c0 .01 0 .018-.004.023a.025.025 0 01-.023.014c-.009 0-.018-.005-.027-.01-.014-.009-.018-.018-.032-.031-.014-.01-.018-.018 0-.032.01-.01.018-.023.027-.032.005-.004.014 0 .018.005.005 0 .01.009.014.009l.01.009c0 .013.017.023.017.045zM14.771 12.317c0 .014 0 .027-.018.027-.005 0-.01.01-.014.014-.009.009-.031.009-.036 0 0-.005-.005-.005-.005-.01-.022-.013-.018-.018-.004-.04.014-.027.036-.018.059-.023.014 0 .018.005.018.032zM13.769 13.618c0 .027-.014.05-.036.046-.005 0-.01-.005-.014-.01-.009-.008-.014-.018-.023-.022-.009-.01-.004-.036.005-.04.004 0 .004-.005.009-.01.004-.014.018-.009.027-.009.023.005.032.014.032.045zM14.812 11.854c-.027 0-.032-.004-.036-.031 0-.037.004-.041.036-.046.023 0 .04.014.045.037 0 .022-.018.036-.045.04zM14.426 13.197c-.004.009-.004.027-.009.031-.013.005-.036.01-.045.005-.014-.01-.032-.018-.027-.04.004-.019.04-.046.05-.033.013.005.036.01.031.037zM13.415 13.514c0 .01 0 .027-.004.027a.16.16 0 01-.046.01c-.009 0-.027-.032-.027-.041 0-.019.014-.028.023-.037.009-.004.022-.009.036.01.005.008.018.018.018.031zM15.234 14.267c-.005.023-.028.045-.046.04-.022-.004-.045-.045-.036-.067l.018-.014c.01-.013.014.005.018.005.014 0 .023.004.027.018.01.005.014.009.019.018zM14.903 14.153c.009.005.022-.008.031.01.01.022.005.04-.009.05-.009.004-.013.018-.027.013a.035.035 0 01-.018-.009c-.005 0-.005-.005-.01-.01-.013-.008-.017-.022-.004-.035l.005-.005c.004-.018.018-.014.032-.014zM15.483 14.222c0 .018.005.031-.014.031 0 .018-.013.018-.027.018-.004 0-.009-.004-.013-.009-.005 0-.005-.009-.005-.009-.023 0-.018-.022-.014-.031.005-.01.014-.028.023-.028a.078.078 0 01.046 0c0 .005 0 .023.004.027zM15.034 13.677c.014 0 .027-.004.027.014 0 0 .005.004.01.004.008.01.008.028 0 .032-.005 0-.005.005-.005.005 0 .022-.018.018-.032.018-.014-.005-.023-.018-.032-.027v-.014c-.004-.027 0-.032.032-.032zM14.236 15.097c0-.018.018-.04.036-.04s.046.026.04.044c-.004.019-.026.032-.044.032-.023 0-.032-.009-.032-.036zM14.29 12.748c-.018 0-.031 0-.031-.023v-.004c-.019-.014-.014-.023 0-.037l.013-.013c.032-.01.046 0 .05.036v.014c-.009.022-.009.027-.032.027zM15.742 14.952c0-.01 0-.027.004-.032.014-.005.032-.01.045-.005.01 0 .018.014.023.023a.024.024 0 01-.01.032c-.004.004 0 .018-.013.018-.027.01-.045-.01-.05-.036zM13.882 12.957c-.023 0-.04-.014-.04-.032 0-.023.017-.041.04-.046.014 0 .032.023.036.041 0 .032-.004.037-.036.037zM14.671 12.081c-.004 0-.022 0-.022-.004a.163.163 0 01-.01-.046c0-.009.014-.018.028-.022.014-.005.023-.005.032.009.009.009.022.013.018.027 0 .004-.005.009-.01.014l-.008.004c0 .018-.014.014-.028.018zM13.927 11.927c0 .027-.018.05-.04.045a.071.071 0 01-.037-.036c0-.018.014-.036.032-.036h.01c.03-.01.035-.005.035.027zM15.202 13.097c.031 0 .036 0 .036.036 0 .018-.014.04-.032.04-.018 0-.045-.022-.045-.04 0-.004 0-.009.004-.009.014-.005.014-.036.037-.027zM13.279 13.224c-.009-.005-.023-.005-.027-.01-.005-.013-.014-.031-.005-.04.01-.01.018-.027.037-.027.018 0 .022.018.031.027.005.004.01.018-.004.031-.01.01-.018.019-.032.019zM15.81 14.739c0 .018-.019.04-.037.04-.013 0-.036-.018-.04-.036 0-.023.018-.04.04-.045a.065.065 0 01.037.04zM15.787 14.104c0-.032.013-.045.04-.045.019 0 .019.022.032.027.005.004.005.018-.004.027-.01.01-.014.023-.032.023-.036-.005-.036-.005-.036-.032zM14.109 14.562a.105.105 0 01-.014.032.049.049 0 01-.05-.005c-.013-.01-.013-.018-.013-.027 0-.018.027-.041.05-.037.004 0 .004.005.004.005.005.01.01.018.023.032zM13.91 14.92c.018 0 .04.014.04.036 0 .018-.018.041-.036.041s-.036-.018-.036-.04c-.005-.028 0-.033.031-.037zM15.374 12.897v-.013c0-.027.018-.041.046-.032.004 0 .009.005.009.009.004.018.004.04.004.059 0 .005-.004.005-.009.009-.004 0-.009 0-.009.005-.032 0-.04-.005-.04-.037zM15.769 14.444c0-.032.018-.046.05-.037.008.005.031.037.027.046-.005.009-.01.018-.018.027-.005.005-.019.005-.023.005-.005 0-.01 0-.01-.005-.026-.023-.026-.023-.026-.036zM14.948 11.687c.031-.005.05.018.04.05 0 .004-.031.027-.036.027-.009 0-.013 0-.018-.01 0-.004-.004-.004-.009-.008-.004-.005-.009-.01-.009-.014v-.018c.014-.005.01-.036.032-.027zM16.526 13.496c0 .018-.014.04-.032.04-.018 0-.045-.017-.045-.036v-.018c.018 0 .014-.027.036-.027.018.01.041.023.041.04zM15.157 12.19c0 .013.004.027-.014.032a.056.056 0 01-.059-.005c-.005-.005-.009-.023-.005-.027a.296.296 0 01.037-.041h.004c.005.014.019.014.028.018.009.005.009.014.009.023zM16.073 14.095c.018 0 .036.018.04.036 0 .014-.018.036-.031.04-.019 0-.037-.017-.041-.035 0-.032.004-.037.032-.041zM13.624 12.616c-.014 0-.032 0-.037-.004-.004-.014-.004-.028-.004-.046v-.004c.01-.01.05-.014.063-.005.01.005.019.037.014.045 0 .005-.004.005-.009.005-.009.01-.018.01-.027.01zM14.92 12.997c-.022.014-.026-.018-.04-.023-.01-.004 0-.023.009-.031l.023-.014c.004 0 .004-.005.009-.005l.027.014c.005.005.005.013.005.018v.005c.004.031 0 .036-.032.036zM16.2 13.564c-.037 0-.046-.01-.046-.046 0-.004.005-.009.01-.013.004-.005.008-.005.008-.01.005-.004.01-.008.01-.004.008.005.022.014.031.018.014.01.027.023.018.041a.108.108 0 01-.032.014zM15.456 15.051c.009.019-.01.019-.014.028-.004.018-.018.013-.031.013h-.005c-.01 0-.032-.032-.027-.04 0-.005.004-.01.004-.01.005-.004.01-.004.01-.009.008-.018.027-.018.04-.004.014.004.023.013.023.022.004 0 .004 0 0 0zM15.451 13.469c-.018 0-.04-.018-.04-.041 0-.014.018-.036.036-.036.022 0 .04.018.04.036 0 .027-.013.04-.036.04zM16.032 14.04c-.01 0-.014-.004-.018-.013-.005-.01-.023-.014-.019-.032 0-.005.005-.01.01-.014l.004-.004c0-.014.009-.014.018-.018.014 0 .014.004.023.013.009.01.018.01.018.023.004.027-.014.045-.036.045zM14.04 13.31c.02 0 .037.014.042.032 0 .022-.023.045-.041.045-.014 0-.032-.023-.032-.04-.004-.019.01-.037.032-.037zM15.796 14.249c0-.023.027-.045.05-.04.009.004.018.013.027.017.005.005.005.014.005.018 0 .01 0 .018-.014.018-.01 0-.01.023-.027.019-.01 0-.018.004-.018-.01 0-.004-.005-.004-.005-.004-.018.005-.018-.009-.018-.018zM15.025 13.46c.018 0 .036.013.036.031 0 .023-.013.041-.036.046-.014 0-.036-.019-.04-.037.004-.013.022-.036.04-.04zM14.381 11.474c-.032 0-.045-.019-.036-.05v-.005c.004-.009.045-.014.059-.004.018.004.018.018.018.036s-.01.023-.04.023zM15.274 11.918c.01 0 .032 0 .032.005a.156.156 0 01.005.045.01.01 0 01-.01.009c-.013.005-.027.005-.04.005-.023 0-.032-.01-.032-.032 0-.023 0-.027.027-.027.01 0 .014 0 .018-.005zM13.628 14.43c0 .018-.013.041-.031.041-.019 0-.041-.018-.041-.036 0-.014.018-.036.031-.041.018 0 .037.018.041.036zM16.426 12.584c0-.031.023-.05.055-.036.009.005.018.014.022.023v.013a.262.262 0 01-.031.037c-.005.004-.01.004-.014.004-.018-.009-.032-.027-.032-.04zM12.953 13.754c0 .014.009.032-.019.037-.031.004-.04.008-.045-.037-.005-.032.005-.04.036-.04.023.004.023.004.027.04zM15.052 12.42c-.018 0-.036-.013-.04-.035 0-.014.017-.041.031-.041.014 0 .04.022.04.036.005.023-.017.04-.031.04zM15.914 11.605c0 .018-.018.04-.036.04-.014 0-.037-.017-.037-.035 0-.018.018-.041.037-.041.013 0 .036.022.036.036zM15.805 13.528H15.8c-.027 0-.045-.018-.032-.046 0-.004.005-.009.01-.009.009-.004.022-.004.036-.004.023 0 .027.009.032.027 0 .027-.005.032-.041.032zM16.472 13.854h-.01c-.027 0-.04-.027-.031-.05 0-.004.004-.004.004-.004.01-.004.023-.004.032-.009.032 0 .045.014.036.045-.004.023-.018.018-.031.018zM16.38 14.544c-.013 0-.035-.018-.04-.032 0-.018.018-.045.036-.045.014 0 .037.022.037.04.004.014-.018.037-.032.037zM16.045 12.83c.023 0 .032.008.032.035 0 .028-.009.037-.032.041-.022 0-.031-.009-.031-.04 0-.032.004-.037.031-.037zM15.995 12.262c-.031 0-.045-.018-.036-.045.005-.009.014-.013.018-.023.01-.013.014 0 .023 0 .004 0 .009.005.014.005.009 0 .022.005.018.018 0 .01 0 .018-.01.027-.008.014-.018.023-.027.018zM13.533 11.782c-.032 0-.05-.023-.04-.05.004-.01.017-.018.03-.023.014-.01.019.01.024.018.004.005.004.01.009.014.009.009.009.013 0 .022-.005.005-.005.028-.023.019zM16.308 14.312c-.018.01-.027-.013-.04-.018 0 0-.005-.013 0-.013a.296.296 0 01.04-.037c.005-.004.028.005.028.01a.155.155 0 01.004.045c0 .004-.013.009-.023.009 0 .009-.004.004-.009.004zM13.601 13.419v.009c0 .027-.005.027-.027.032-.023 0-.032-.005-.037-.028-.004-.027.005-.045.023-.045.027-.009.041 0 .041.032zM13.678 12.516c0-.009-.005-.022.014-.027 0 0 .004-.004.004-.009.005-.009.014-.009.014-.004.004.013.013.009.022.009.01 0 .014.004.019.013 0 .01.004.018-.005.023-.01.004-.014.018-.027.023-.037.009-.041.004-.041-.028zM14.608 12.702c0 .014-.01.037-.023.041-.009.005-.032 0-.032-.014-.004-.018-.004-.036-.004-.054 0-.004.004-.004.009-.009h.014c.027 0 .031.005.036.036zM16.667 12.983h.009c.027 0 .032.005.032.032 0 .018-.005.027-.023.027-.005 0-.014 0-.018.005-.028 0-.037-.005-.037-.036 0-.023.005-.028.037-.028zM14.449 13.015c.005.014-.014.019-.014.023-.004.018-.018.014-.027.014-.004 0-.009-.005-.013-.01-.005-.004-.005-.008-.01-.008-.018-.005-.009-.019-.013-.032 0-.005.027-.027.032-.027.022 0 .045.018.045.04zM14.372 13.428h-.014c-.013 0-.023-.005-.018-.018v-.005c0-.013 0-.027.005-.031a.055.055 0 01.063 0c.005.004.01.027.005.027-.014.004-.014.036-.041.027zM13.401 12.14c-.036.005-.05-.014-.04-.05 0-.004.004-.009.009-.009.013 0 .031-.004.045-.004.01 0 .018.009.023.013.004.01.009.023-.01.032-.013.01-.013.023-.027.018zM13.184 12.762c-.032 0-.036-.005-.036-.037 0-.018.018-.036.036-.04.013 0 .036.027.036.04 0 .01-.005.023-.014.028-.004.009-.018.009-.022.009zM14.06 14.19c0-.027.004-.04.026-.036.014.004.027.013.041.018.005.009-.018.05-.027.05-.032.009-.04 0-.04-.032zM14.549 12.185c.004.014-.014.014-.014.023-.004.014-.013.014-.023.014-.004 0-.009-.005-.013-.01-.005 0-.005-.004-.01-.008-.017-.01-.017-.028-.004-.037.01-.004.005-.022.023-.022.018.004.04.018.04.04zM16.027 14.53c.018 0 .041.018.041.036s-.018.036-.036.04c-.018 0-.037-.017-.041-.035 0-.018.023-.041.036-.041zM12.984 13.283h-.004c-.028 0-.041-.018-.032-.045.013-.005.027-.01.04-.01.01 0 .023-.004.028.014.004.014.004.027 0 .036 0 .005-.018.005-.032.005 0 0 0 .005 0 0zM15.175 11.324c.027 0 .05.022.045.045a.04.04 0 01-.027.027c-.014.01-.023 0-.032-.013v-.005-.045c.004-.01.009-.01.014-.01zM15.66 12.498c0-.018.018-.036.036-.036.014 0 .036.018.036.032 0 .018-.018.04-.036.04-.014 0-.032-.018-.036-.036zM15.551 12.557l.01-.009.008-.009c.01-.018.027-.023.041-.005.009.01.023.019.018.032 0 .005-.004.01-.009.014-.005.009-.014.018-.018.018-.01 0-.018-.014-.027-.014-.018 0-.023-.009-.023-.027zM13.048 13.573c-.037.005-.055-.018-.041-.05 0-.004.005-.004.005-.004.018-.01.054-.005.067.013.01.014 0 .032-.013.037-.005.004-.014.004-.018.004zM16.73 13.332h-.009c-.032 0-.036-.004-.032-.036 0-.013.01-.022.023-.022.018 0 .032-.005.045.013.01.01.01.018.01.027-.005.01-.014.014-.019.018h-.018zM13.86 11.723c0-.032.022-.05.05-.041.008.005.008.014.018.018.018.01 0 .014-.005.023-.005.004 0 .013-.005.018-.009.005-.018.027-.031.018-.014-.014-.037-.018-.027-.036zM15.116 14.566c.013.023-.018.023-.023.04h-.005c-.009-.008-.018-.013-.031-.022-.005 0 0-.009-.005-.009-.013-.009-.004-.013 0-.022.01-.023.023-.019.04-.023.014 0 .024.004.024.018v.018zM14.626 15.11c.018-.009.027.014.036.023.01.01 0 .032-.013.032-.014.005-.027.005-.041.005-.014 0-.023-.005-.023-.023 0-.032.005-.037.041-.037zM15.148 14.802c0-.032.004-.04.022-.04s.036.017.036.04-.009.032-.031.032c-.019.004-.023 0-.027-.032zM14.866 12.299c.014-.005.023.004.023.018 0 .013.005.022 0 .036-.005.023-.018.023-.036.014-.014-.01-.023-.019-.023-.037.005-.027.005-.027.036-.031zM14.984 14.48c-.027 0-.032-.005-.036-.032 0-.018.013-.045.031-.045.014 0 .032.022.032.04.005.028 0 .037-.027.037zM15.002 14.934c0-.032.018-.05.045-.046.005 0 .01.01.014.014.005.005.014.01.014.014l-.014.04c-.004.01-.027.005-.032-.004-.004-.005-.013-.005-.018-.01-.009 0-.009-.008-.009-.008zM15.229 12.983c-.01.01-.01.023-.018.032-.014.01-.014.032-.037.032-.008 0-.022-.005-.022-.005 0-.009 0-.022.004-.031a.296.296 0 01.037-.041c.004-.005.018-.005.027-.005 0-.004.004.01.009.018zM13.945 12.19c0 .027-.022.045-.05.036-.008-.005-.013-.04-.008-.055.004-.013.013-.018.027-.018.018 0 .031.018.031.037zM14.49 13.909c0-.023.018-.041.036-.046.032 0 .046.014.041.046v.004c-.005.01-.054.01-.059 0-.004-.004-.013-.004-.018-.004zM15.483 13.015c0 .01 0 .018-.005.023-.004.009-.018.014-.027.014-.009.004-.045-.032-.04-.041l.013-.027c.004-.005.014-.005.018-.005.032.005.036.005.04.036zM16.3 12.766c0-.032 0-.037.026-.037.028 0 .032.005.032.032 0 .018-.013.046-.027.046h-.01c0-.019-.03-.019-.022-.041zM14.748 14.593c0-.032.005-.04.032-.04.005 0 .014 0 .018.004.01.009.014.018.018.027.005.01-.031.045-.04.045a3.447 3.447 0 01-.028-.013v-.023zM13.32 13.596v.013a.054.054 0 01-.023.023c-.014.01-.027 0-.032-.014 0-.009-.004-.018-.004-.027 0-.027.004-.031.032-.031.022-.005.022 0 .027.036zM14.93 11.415c0 .027-.018.05-.041.04-.005 0-.014-.004-.014-.008-.004-.019-.004-.032-.004-.05 0-.005.004-.01.009-.01.027-.018.045-.004.05.028zM15.669 12.067c.009 0 .022-.004.027.014 0 .005.01.005.01.01.004.004.004.008.004.013a.296.296 0 01-.037.04h-.004c-.01-.004-.023-.013-.027-.022a.076.076 0 010-.046c0-.004.018-.004.027-.009zM13.333 14.68c0 .027 0 .031-.036.031h-.018c-.01-.009-.018-.018-.018-.027 0-.009.009-.022.013-.027.005-.005.014-.005.023-.005.032-.004.032-.004.036.028zM14.907 14.525h.014c.009 0 .013.005.013.014v.005c.01.036-.004.05-.04.045-.01 0-.032-.023-.032-.032 0-.004.004-.009.004-.009s.005-.005.01-.005c.013-.018.013-.018.03-.018zM15.596 14.013c-.031 0-.031 0-.031-.032 0-.027.004-.032.031-.032.018 0 .046.018.046.027 0 .01-.005.023-.014.028-.01.004-.023.004-.032.009zM14.213 11.709c-.027 0-.031 0-.036-.032v-.027c.014 0 .014-.014.023-.018 0 0 .009 0 .009.004.004.014.032.01.027.037 0 .027 0 .036-.023.036zM12.898 13.487c-.009 0-.027 0-.032-.005-.004-.013-.004-.027-.004-.04 0-.005.004-.01.009-.01.009-.004.023-.004.036-.004.005 0 .01.004.014.009v.004c0 .01.022.005.013.018-.004.01-.013.01-.013.023 0 0-.014 0-.023.005zM13.597 12.743c0 .019-.014.046-.032.046-.01 0-.023-.014-.032-.018v-.005c-.01-.04.014-.059.05-.045.009 0 .014.013.014.022zM14.104 12.702c-.027 0-.027 0-.031-.031 0-.014.018-.041.027-.041.009.004.022.009.027.013.005.005.005.014.005.023.004.027 0 .032-.028.036zM16.227 12.013a.05.05 0 01.045.027v.005c-.005.023-.045.04-.063.027-.005 0-.005-.004-.005-.009v-.018c-.01-.027-.01-.027.023-.032zM14.304 11.396c0 .005 0 .014-.005.018-.004.01-.018.018-.027.018-.009 0-.023-.009-.027-.013-.004-.005-.004-.018-.004-.027 0-.023.004-.032.031-.032s.032.004.032.036zM13.927 14.226c0 .027 0 .032-.031.032-.019 0-.046-.018-.046-.027 0-.014.023-.032.041-.032.027 0 .032 0 .036.027zM14.023 13.047c-.027 0-.046-.023-.041-.045 0-.005.004-.01.004-.01.019 0 .037-.004.06 0 .004 0 .009.005.009.01.004.018-.01.045-.032.045zM14.504 13.564c0 .027 0 .032-.028.032-.009 0-.018 0-.022-.005-.01-.004-.014-.013-.019-.022 0 0 0-.005.005-.01.01-.009.01-.027.032-.027.027.005.032.005.032.032zM16.544 13.215c0-.027 0-.032.032-.032.009 0 .018 0 .023.005.009.004.018.013.018.022 0 .01-.005.023-.014.027-.004.005-.014.005-.023.005-.027.005-.031 0-.036-.027zM15.306 13.11c.018 0 .041.014.041.028 0 .013-.018.031-.036.031-.032 0-.037-.004-.037-.031 0-.023 0-.028.032-.028zM14.653 13.165c0-.032 0-.032.032-.037.027 0 .032.005.032.032 0 .018-.019.046-.032.046-.014 0-.032-.023-.032-.041zM16.082 14.734c-.005.009-.005.023-.01.027-.013.005-.031.005-.045.005 0 0-.004-.005-.004-.01 0-.013-.005-.022 0-.036 0-.004.004-.009.009-.013l.013-.014c.005 0 .005-.005.01-.005l.004.005c0 .014.032.01.023.032-.005 0 0 .004 0 .009 0-.005 0-.005 0 0zM13.397 14.136c-.018 0-.04-.019-.04-.037 0-.013.008-.018.017-.023.01-.004.018-.004.032-.004.01 0 .023-.004.023.01 0 .008.009.026-.01.035-.008.005-.008.023-.022.018zM14.812 12.879c0 .005 0 .023-.01.023-.013.004-.03.004-.044.004 0 0-.005-.004-.005-.009-.01-.027-.005-.045.018-.063.005 0 .01-.005.01-.005.008.005.017.014.022.018.004.014.004.023.009.032zM13.755 14.004c.032 0 .032 0 .036.032 0 .018-.013.045-.027.045-.013 0-.036-.027-.036-.045 0-.028.005-.032.027-.032zM14.272 12.104c0 .027-.023.05-.045.04-.005 0-.005-.004-.005-.004-.004-.014-.004-.032-.004-.05 0-.005.004-.018.013-.018.01-.005.023-.01.028.009 0 .005.018.01.013.023zM15.17 15.11c0 .019-.014.041-.027.041-.014 0-.032-.018-.032-.036 0-.032 0-.036.027-.04.027 0 .032.004.032.036zM13.393 13.836c0-.032 0-.032.031-.032.027 0 .032 0 .032.032 0 .018-.013.045-.027.04-.01 0-.018-.004-.027-.013-.01-.009-.01-.018-.01-.027zM15.56 11.55c-.032 0-.036 0-.036-.031 0-.023.005-.032.032-.032.013 0 .04.014.04.027 0 .01-.004.019-.013.028-.01.009-.018.009-.023.009zM15.832 12.743c-.004 0-.013 0-.018-.004-.009-.005-.018-.014-.018-.023-.005-.014.023-.036.04-.036.023 0 .037.009.037.031-.005.028 0 .028-.04.032zM16.059 13.746c-.023 0-.027 0-.027-.032 0-.01 0-.018.004-.023.005-.009.018-.013.027-.013.01 0 .019.009.028.013.004.005.004.014.004.023-.004.023-.009.032-.036.032zM14.549 15.088c0 .027 0 .032-.032.032-.027 0-.032 0-.032-.028 0-.031 0-.031.028-.036.031 0 .031 0 .036.032zM16.635 14.285c0 .027-.005.031-.032.031-.018 0-.045-.018-.045-.031 0-.005 0-.01.004-.01.014-.004.018-.027.036-.022.032.005.037.005.037.032zM14.526 12.108c-.004 0-.013 0-.018-.004a.054.054 0 01-.023-.023c-.004-.009.023-.032.037-.032.031-.004.036 0 .036.028.005.027.009.027-.032.031zM13.397 14.512c0 .027-.018.045-.05.036-.005 0-.005-.004-.005-.004-.009-.023-.004-.055.019-.068.004 0 .009-.005.009 0 .013 0 .027.022.027.036zM14.327 15.029v-.018a.094.094 0 01.027-.018c.014-.005.032.022.032.04 0 .028-.005.032-.028.032-.027 0-.027.01-.031-.036zM15.424 13.922v.018c0 .01.005.018-.01.018-.008 0-.022.01-.03-.009-.005-.009-.019-.018-.019-.031 0-.023.018-.037.036-.037.014 0 .018.005.018.018a.061.061 0 01.005.023zM15.147 14.017v.019c0 .009.005.018-.009.018-.009 0-.022.009-.031-.01-.005-.008-.019-.018-.019-.031 0-.023.019-.036.037-.036.013 0 .018.004.018.018 0 .013.004.022.004.022zM15.202 12.643v.018c0 .01.004.019-.01.019-.008 0-.022.009-.031-.01-.005-.008-.018-.018-.018-.031 0-.023.018-.037.036-.037.014 0 .018.005.018.019a.078.078 0 01.005.022zM14.522 13.514c-.032 0-.037-.004-.041-.032 0-.022.005-.027.032-.031.018 0 .045.013.04.027 0 .009-.004.018-.013.027-.005.01-.018.01-.018.01zM15.347 14.83c0-.033.018-.05.045-.041.005 0 .005.004.01.004.008.018.004.054-.014.068-.005.005-.01.005-.014.005-.009-.005-.018-.01-.027-.019v-.018zM14.386 14.371c0 .032 0 .032-.023.036-.032 0-.036-.004-.036-.031 0-.023.004-.028.031-.028.023-.004.023-.004.028.023zM16.14 11.981c.032 0 .032 0 .037.032 0 .023-.005.032-.032.032-.005 0-.014 0-.018-.005-.01-.009-.018-.018-.018-.027 0-.009.004-.022.013-.027 0-.005.01-.005.018-.005zM13.506 12.271c.013 0 .036.019.04.028 0 .013-.022.031-.036.031-.027 0-.036-.004-.036-.027-.004-.013.014-.032.032-.032zM14.281 12.503c0 .032 0 .032-.027.032s-.032 0-.032-.037c0-.022 0-.022.027-.027.028 0 .028.005.032.032zM13.969 13.51c.027 0 .031 0 .031.031 0 .01 0 .018-.004.023-.005.009-.018.013-.027.018-.01.004-.032-.027-.032-.041 0-.027.004-.027.032-.032zM16.209 14.222c-.028 0-.028 0-.028-.032 0-.027 0-.027.032-.032.027 0 .032 0 .032.032-.005.032-.005.032-.036.032zM15.94 14.222c.028 0 .028 0 .033.031 0 .028-.005.032-.032.032s-.032-.004-.032-.032c0-.031.005-.031.032-.031zM16.072 11.986c-.018.009-.022-.014-.036-.023v-.005c.01-.009.014-.022.023-.027.013-.004.027 0 .04 0 0 0 .005.005.005.01.014.017-.004.045-.032.045z" fill="#FF4E0D"/><path d="M14.49 13.909c0 .013 0 .027.005.04 0 .014-.005.019-.014.019h-.018c-.01 0-.027-.005-.027-.005v-.045c0-.005.018-.005.027-.005.009-.004.018-.004.027-.004zM15.605 13.079c0 .027 0 .031-.022.031-.027 0-.037 0-.037-.031 0-.023.005-.028.028-.032.027 0 .027.004.031.032zM16.068 13.183c0 .027 0 .032-.023.032-.027 0-.036 0-.036-.032 0-.023.005-.027.027-.032.027.005.027.005.032.032zM14.549 14.87c0-.028 0-.032.023-.032.027 0 .031.004.036.032 0 .022 0 .027-.032.027-.023.004-.023.004-.027-.027zM13.587 13.872c0-.009 0-.018.005-.022.005-.01.013-.014.027-.018.018-.005.036.027.032.045 0 .004-.005.004-.01.009-.008.004-.022.004-.026.018-.005.005-.014.005-.014-.005-.01-.009-.01-.018-.014-.027zM14.63 14.171s-.009-.004-.013-.009c-.005-.004-.01-.004-.01-.004-.008-.005-.013-.027-.004-.032h.01c.008.005.018.005.027.009.004.005.013.01.013.014 0 .009.005.027-.013.027.004-.01 0-.005-.01-.005zM14.794 14.312c.027 0 .045.023.031.05 0 .004-.009.009-.009.004-.009-.004-.018-.013-.027-.022 0 0 0-.005-.005-.01-.004-.004-.018-.004-.013-.018.004 0 .018 0 .023-.004zM13.36 13.922h.014c.01 0 .014.005.023.01-.005.004-.01.008-.01.013-.004.014-.013.023-.026.018a.08.08 0 01-.032-.022s.004-.01.004-.014c.005-.005.018-.005.028-.005zM15.492 13.74c.005.005.01.005.014.01-.005.004-.01.009-.018.009-.005 0-.01-.005-.018-.005.013-.004.018-.009.022-.013z" fill="#FF4E0D"/><path d="M8.268 18.788c.381-.064 1.297-.54 2.113-.898A2.073 2.073 0 008.177 16a2.085 2.085 0 00-1.936 2.218c.032.494.231.934.54 1.27.635-.34 1.22-.654 1.487-.699z" fill="url(#prefix__paint14_linear)"/><path d="M6.908 19.418a1.948 1.948 0 011.279-3.283 1.94 1.94 0 012.063 1.814c.045-.018.09-.04.131-.059A2.073 2.073 0 008.177 16a2.085 2.085 0 00-1.936 2.218c.032.494.231.934.54 1.27.04-.023.081-.046.127-.069z" fill="url(#prefix__paint15_linear)"/><path d="M6.531 18.82c0-.014.014-.037.023-.041h.009c.005 0 .01.004.014.004.013.005.027.01.027.028 0 .009.009.013.013.013h.028c.013 0 .031-.009.04.014.005.004.014.009.014.022 0 .01 0 .014-.014.019-.009 0-.013.009-.018.013-.009.01-.013.01-.022 0a.014.014 0 00-.019 0c-.004 0-.013.01-.013.01-.01-.005-.018-.014-.027-.023-.01-.01-.018-.023-.032-.028-.018-.004-.023-.004-.023-.031zM9.9 17.5c0-.018.019-.04.041-.04.01 0 .037.018.037.031.004.018.013.023.027.023h.018c.023-.01.036.004.05.018l.005.01a.09.09 0 01-.041.04h-.01c-.008-.01-.018-.014-.027 0h-.013a.09.09 0 01-.041-.04c-.005-.005-.01-.005-.014-.01-.027-.005-.027-.009-.031-.032zM7.556 18.557c-.005.013.005.022.018.022.01 0 .014.005.018.014.005.009.01.014.014.018.009.01.009.014 0 .018-.005 0-.005.005-.01.005-.004.004-.004.013-.008.018a.063.063 0 01-.041 0c-.005 0-.01-.01-.01-.014-.004-.013-.004-.027-.004-.045 0-.014-.004-.018-.018-.018h-.023a.04.04 0 01-.04-.041c0-.014.013-.014.018-.018.004-.01.009-.014.022-.005.01.005.023.005.032.005.018 0 .027.004.027.023.005.013.005.013.005.018zM9.964 17.065c-.01 0-.027 0-.032-.005-.004-.013-.004-.032-.004-.05 0-.004.013-.009.018-.013.009-.01.013-.005.018 0 .018.009.032 0 .032-.023 0-.027.018-.04.045-.032.005 0 .01.005.01.01a.066.066 0 01.004.05c0 .004-.01.008-.018.013-.01.004-.019 0-.028.004-.004 0-.009.005-.013.01.004.027 0 .031-.032.036zM7.007 17.663c.032-.004.037 0 .046.027 0 .005.004.01.009.01.004 0 .009-.005.009-.01.009-.013.027-.013.04 0l.005.005c.018.009.018.027.005.04-.005.005-.01.014-.018.019-.019.004-.041-.005-.046-.023-.004-.013-.013-.013-.022-.009-.01 0-.014 0-.023.005-.018.004-.023-.018-.036-.023v-.005c.004-.009.009-.018.018-.027.004-.009.013-.009.013-.009zM8.867 16.502c.009.005.013.01.022.014.014.005.023.01.037.01.022 0 .04.017.04.035 0 .01 0 .018-.013.018-.005 0-.005.005-.01.01-.008.013-.022.013-.031.004a.034.034 0 00-.018-.009c-.01-.005-.018 0-.027-.014 0-.004-.01-.004-.018-.004-.014-.005-.028-.018-.023-.032a.1.1 0 01.04-.032zM8.59 16.171c.005.032-.01.04-.04.04-.01 0-.019 0-.019.015 0 .004-.005.004-.01.009-.004.004-.008.009-.013.009-.004.004-.004.004-.009.004-.009-.014-.031-.014-.031-.036 0-.027.004-.036.031-.036.018 0 .027-.005.027-.028 0-.004.01-.009.014-.013h.005c.036 0 .04.004.045.036zM9.574 17.029c.018 0 .032 0 .05-.005.014 0 .032.018.032.027v.036c0 .005-.005.01-.01.01-.018 0-.031.009-.05-.005-.004-.005-.013 0-.017 0-.01.014-.014.014-.023 0l-.005-.005c-.004-.004-.018-.004-.018-.009 0-.013-.004-.027 0-.04a.17.17 0 01.041-.01s0-.004 0 0zM9.805 17.745c0 .018 0 .032-.004.04a.1.1 0 01-.041.046h-.004c-.01-.01-.023-.014-.032-.023-.005-.013-.005-.027-.005-.045a.094.094 0 01.041-.059c.005-.005.023.01.032.018.013.005.009.018.013.023zM8.155 18.275a.1.1 0 01.077.032c.004.01.009.014 0 .018-.005 0-.005.005-.01.01-.008.017-.022.022-.04.008-.01-.004-.018-.004-.032-.004-.027 0-.027 0-.027-.027v-.014c0-.013.005-.023.023-.023h.009zM9.316 16.829c0 .009 0 .018-.005.022a.025.025 0 01-.023.014c-.009 0-.018-.005-.027-.01-.013-.008-.018-.017-.032-.03-.013-.01-.018-.019 0-.033.01-.009.019-.022.028-.031.004-.005.013 0 .018.004.004 0 .009.01.013.01l.01.008c0 .014.022.023.018.046zM8.26 17.087c0 .014 0 .028-.02.028-.004 0-.008.009-.013.013-.009.01-.031.01-.036 0 0-.004-.004-.004-.004-.009-.023-.014-.019-.018-.005-.04.014-.028.036-.019.059-.023.014 0 .014.004.018.031zM7.252 18.384c0 .028-.014.05-.036.046-.005 0-.01-.005-.014-.01-.009-.008-.013-.017-.022-.022-.01-.009-.005-.036.004-.04.005 0 .005-.005.01-.01.004-.013.017-.009.026-.009.028.01.032.018.032.046zM8.295 16.625c-.027 0-.031-.005-.036-.032 0-.036.005-.04.036-.045.023 0 .041.014.046.036 0 .023-.014.036-.046.04zM7.91 17.967c-.005.01-.005.027-.01.032-.013.005-.036.009-.045.005-.013-.01-.031-.019-.027-.041.005-.018.04-.046.05-.032.014.005.036.009.032.036zM6.899 18.285c0 .009 0 .027-.005.027a.159.159 0 01-.045.009c-.01 0-.027-.032-.027-.04 0-.02.013-.028.022-.037.01-.005.023-.01.036.009.01.009.019.018.019.032zM8.517 18.448c.014 0 .028-.005.028.013 0 0 .004.005.009.005.009.009.009.027 0 .032-.005 0-.005.004-.005.004 0 .023-.018.018-.032.018-.013-.004-.022-.018-.031-.027v-.013c-.005-.028.004-.032.031-.032zM7.774 17.518c-.018 0-.032 0-.032-.022v-.005c-.018-.014-.014-.023 0-.036l.014-.014c.031-.009.045 0 .05.037v.013c-.005.023-.01.027-.032.027zM7.366 17.727c-.023 0-.041-.014-.041-.032 0-.022.018-.04.04-.045.014 0 .032.023.037.04 0 .032-.005.037-.036.037zM8.155 16.847c-.005 0-.023 0-.023-.005a.16.16 0 01-.009-.045c0-.01.014-.018.027-.023.014-.004.023-.004.032.01.01.008.023.013.018.027 0 .004-.004.009-.009.013l-.009.005c.005.022-.014.018-.027.018zM7.415 16.697c0 .028-.018.05-.04.046a.07.07 0 01-.037-.037c0-.018.014-.036.032-.036h.01c.03-.009.03-.004.035.027zM8.685 17.867c.032 0 .036 0 .036.037 0 .018-.013.04-.031.04-.018 0-.046-.022-.046-.04 0-.005 0-.01.005-.01.013-.008.013-.035.036-.026zM6.762 17.994c-.009-.004-.022-.005-.027-.009-.004-.014-.013-.032-.004-.04.009-.01.018-.028.036-.028s.023.018.032.027c.004.005.009.018-.005.032-.009.009-.013.018-.032.018zM8.858 17.668v-.014c0-.027.018-.04.045-.032.005 0 .01.005.01.01.004.018.004.04.004.058 0 .005-.005.005-.01.01-.004 0-.009 0-.009.004-.031 0-.036-.005-.04-.036zM8.431 16.457c.032-.004.05.018.041.05 0 .005-.032.027-.036.027-.01 0-.014 0-.018-.009 0-.004-.005-.004-.01-.009-.004-.004-.009-.009-.009-.013v-.019c.014-.004.01-.036.032-.027zM8.64 16.956c0 .014.004.027-.014.032a.056.056 0 01-.059-.005c-.004-.005-.009-.023-.004-.027a.288.288 0 01.036-.041h.004c.005.014.019.014.028.018a.03.03 0 01.009.023zM7.107 17.387c-.013 0-.032 0-.036-.005-.005-.014-.005-.027-.005-.045v-.005c.01-.009.05-.013.064-.004.009.004.018.036.014.045 0 .005-.005.005-.01.005-.004.009-.013.009-.027.009zM8.404 17.767c-.023.014-.027-.018-.04-.022-.01-.005 0-.023.008-.032l.023-.014c.004 0 .004-.004.009-.004l.027.013c.005.005.005.014.005.019v.004c.004.032.004.036-.032.036zM8.939 18.24c-.018 0-.04-.019-.04-.042 0-.013.017-.036.035-.036.023 0 .041.018.041.036 0 .028-.018.041-.036.041zM7.524 18.08c.019 0 .037.014.041.032 0 .023-.022.046-.04.046-.014 0-.032-.023-.032-.041-.005-.018.013-.036.031-.036zM8.513 18.23c.018 0 .036.014.036.032 0 .022-.013.04-.036.045-.014 0-.036-.018-.04-.036 0-.014.017-.037.04-.041zM7.869 16.244c-.032 0-.045-.018-.036-.05v-.004c.004-.01.045-.014.059-.005.018.005.018.018.018.036-.005.014-.014.023-.041.023zM8.758 16.689c.009 0 .032 0 .032.004a.155.155 0 01.004.045c0 .005-.005.01-.009.01-.014.004-.027.004-.04.004-.024 0-.033-.01-.033-.032s0-.027.028-.027c.009 0 .013 0 .018-.005zM7.112 19.2c0 .019-.014.042-.032.042-.018 0-.04-.018-.04-.037 0-.013.017-.036.03-.04.023 0 .042.018.042.036zM9.91 17.355c0-.032.022-.05.054-.037.01.005.018.014.023.023v.014c-.01.013-.023.027-.032.036-.005.005-.01.005-.014.005-.018-.01-.031-.028-.031-.041zM6.436 18.525c0 .013.009.031-.018.036-.032.005-.041.01-.046-.036-.004-.032.005-.041.037-.041.022.004.027.004.027.04zM8.535 17.191a.043.043 0 01-.04-.036c0-.014.018-.04.031-.04.014 0 .041.022.041.036a.034.034 0 01-.032.04zM9.397 16.375c0 .018-.018.041-.036.041-.014 0-.036-.018-.036-.036s.018-.041.036-.041c.014 0 .036.023.036.036zM9.288 18.298h-.004c-.028 0-.046-.018-.032-.045a.01.01 0 01.009-.01c.01-.004.023-.004.036-.004.023 0 .027.01.032.027 0 .023-.005.032-.04.032zM9.529 17.6c.022 0 .031.009.031.036 0 .027-.009.036-.031.04-.023 0-.032-.008-.032-.04.004-.032.004-.036.032-.036zM9.479 17.033c-.032 0-.046-.018-.037-.045.005-.01.014-.014.019-.023.009-.014.013 0 .022 0 .005 0 .01.005.014.005.009 0 .023.004.018.018 0 .009 0 .018-.01.027-.008.014-.013.023-.026.018zM7.016 16.552c-.031 0-.05-.023-.04-.05.004-.009.018-.018.031-.022.014-.01.018.009.023.018.004.004.004.009.009.013.009.01.009.014 0 .023-.005.005-.005.027-.023.018zM7.09 18.19v.008c0 .028-.005.028-.028.032-.023 0-.032-.004-.036-.027-.005-.027.004-.045.022-.045.027-.01.037 0 .041.031zM7.162 17.287c0-.01-.005-.023.013-.027 0 0 .005-.005.005-.01.004-.008.013-.008.013-.004.005.014.014.01.023.01.01 0 .014.004.018.013 0 .009.005.018-.004.023-.01.004-.014.018-.028.022-.031.01-.04.005-.04-.027zM8.091 17.473c0 .013-.009.036-.022.04-.01.005-.032 0-.032-.013-.005-.018-.005-.036-.005-.054 0-.005.005-.005.01-.01h.013c.027 0 .036.005.036.037zM10.15 17.754h.01c.026 0 .03.004.03.032 0 .018-.004.027-.022.027-.004 0-.013 0-.018.004-.027 0-.036-.004-.036-.036 0-.027.004-.027.036-.027zM7.932 17.782c.005.013-.013.018-.013.022-.005.018-.018.014-.027.014-.005 0-.01-.005-.014-.01-.005-.004-.005-.008-.01-.008-.017-.005-.008-.018-.013-.032 0-.005.027-.027.032-.027.027.004.045.018.045.04zM7.855 18.198h-.013c-.014 0-.023-.004-.019-.018v-.004c0-.014 0-.027.005-.032a.054.054 0 01.063 0c.005.005.01.027.005.027-.014.005-.014.037-.04.027zM6.885 16.91c-.036.005-.05-.013-.041-.05a.01.01 0 01.01-.008c.013 0 .03-.005.044-.005.01 0 .019.01.023.014.005.009.01.022-.009.031-.009.01-.014.023-.027.019zM6.667 17.532c-.032 0-.036-.004-.036-.036 0-.018.018-.036.036-.04.014 0 .036.026.036.04 0 .009-.004.023-.013.027-.005.01-.014.01-.023.01zM7.542 18.96c0-.027.005-.04.028-.036.013.005.027.014.04.018.005.01-.018.05-.027.05-.027.01-.036 0-.04-.032zM8.032 16.956c.005.014-.013.014-.013.023-.005.013-.014.013-.023.013-.005 0-.01-.004-.014-.009-.004 0-.004-.005-.009-.009-.018-.01-.018-.027-.004-.036.009-.005.004-.023.022-.023.018.005.041.018.041.04zM6.472 18.053h-.004c-.028 0-.041-.018-.032-.045.014-.004.027-.009.04-.009.01 0 .023-.005.028.014.004.013.004.027 0 .036-.005.005-.023.005-.032.005 0 0 0 .004 0 0zM8.658 16.094c.027 0 .05.023.045.046a.04.04 0 01-.027.027c-.014.009-.023 0-.032-.014v-.004-.046c.005-.009.014-.009.014-.009zM9.148 17.269c0-.018.018-.037.036-.037.014 0 .036.019.036.032 0 .018-.018.041-.036.041-.014 0-.036-.018-.036-.036zM9.034 17.328l.01-.01.009-.009c.009-.018.027-.022.04-.004.01.01.023.018.019.032 0 .004-.005.009-.01.013-.004.01-.013.018-.018.018-.009 0-.018-.013-.027-.013-.018 0-.023-.01-.023-.027zM6.531 18.344c-.036.004-.054-.018-.04-.05 0-.005.004-.005.004-.005.018-.009.054-.004.068.014.009.013 0 .032-.014.036-.004.005-.013.005-.018.005zM7.343 16.493c0-.031.023-.05.05-.04.009.004.009.013.018.018.018.009 0 .013-.005.022-.004.005 0 .014-.004.019-.01.004-.018.027-.032.018-.013-.014-.036-.018-.027-.037zM8.354 17.07c.014-.006.023.004.023.017 0 .014.004.023 0 .037-.005.022-.018.022-.036.013-.014-.009-.023-.018-.023-.036 0-.027.004-.027.036-.032zM8.712 17.754c-.009.009-.009.023-.018.032-.013.009-.013.031-.036.031-.01 0-.023-.004-.023-.004 0-.01 0-.023.005-.032a.293.293 0 01.036-.04c.005-.005.018-.005.027-.005.005-.005.005.009.01.018zM7.429 16.96c0 .027-.023.046-.05.036-.01-.004-.014-.04-.01-.054.005-.014.015-.018.028-.018.018 0 .032.018.032.036zM7.973 18.68c0-.023.019-.042.037-.046.031 0 .045.013.04.045v.005c-.004.009-.054.009-.058 0-.005-.005-.01-.005-.019-.005zM8.966 17.786c0 .009 0 .018-.004.022-.005.01-.018.014-.027.014-.01.005-.046-.032-.041-.04l.013-.028c.005-.005.014-.005.018-.005.037.005.037.005.041.037zM9.787 17.536c0-.032 0-.036.027-.036.028 0 .032.005.032.032 0 .018-.013.045-.027.045h-.01c-.004-.018-.03-.018-.022-.04zM6.803 18.366v.014a.054.054 0 01-.022.023c-.014.009-.028 0-.032-.014 0-.01-.005-.018-.005-.027 0-.027.005-.032.032-.032.023-.004.027 0 .027.036zM8.413 16.185c0 .027-.018.05-.04.041-.005 0-.014-.005-.014-.009-.005-.018-.005-.032-.005-.05 0-.004.005-.009.01-.009.026-.018.049-.005.049.027zM9.152 16.838c.01 0 .023-.005.027.014 0 .004.01.004.01.009.004.004.004.009.004.013-.01.014-.023.027-.036.041h-.005c-.009-.005-.022-.014-.027-.023a.077.077 0 010-.045c0-.005.018-.005.027-.01zM6.817 19.45c0 .027 0 .032-.036.032h-.018c-.01-.01-.019-.018-.019-.027 0-.01.01-.023.014-.027.005-.005.014-.005.023-.005.031-.004.036-.004.036.027zM7.697 16.48c-.028 0-.032 0-.037-.032v-.027c.014 0 .014-.014.023-.018 0 0 .01 0 .01.004.004.014.03.01.026.037.005.027 0 .036-.022.036zM6.381 18.257c-.009 0-.027 0-.031-.004-.005-.014-.005-.027-.005-.041 0-.005.005-.01.01-.01.008-.004.022-.004.036-.004.004 0 .009.005.013.01v.004c0 .009.023.004.014.018-.005.01-.014.01-.014.023 0 0-.013 0-.023.004zM7.084 17.514c0 .018-.013.045-.031.045-.01 0-.023-.013-.032-.018v-.004c-.01-.041.013-.06.05-.046.004 0 .009.014.013.023zM7.588 17.473c-.028 0-.028 0-.032-.032 0-.013.018-.04.027-.04.01.004.023.009.027.013.005.005.005.014.005.023.004.027.004.031-.027.036zM9.71 16.784a.05.05 0 01.045.027v.004c-.004.023-.045.041-.063.028-.005 0-.005-.005-.005-.01v-.018c-.009-.027-.009-.027.023-.031zM7.792 16.167c0 .004 0 .013-.005.018-.004.009-.018.018-.027.018-.009 0-.022-.009-.027-.014-.004-.004-.004-.018-.004-.027 0-.022.004-.031.031-.031.023-.005.027.004.032.036zM7.41 18.997c0 .027 0 .031-.03.031-.02 0-.046-.018-.046-.027 0-.014.022-.032.04-.032.032-.004.037 0 .037.027zM7.506 17.818c-.027 0-.045-.023-.04-.046 0-.004.004-.009.004-.009.018 0 .036-.004.059 0 .004 0 .009.005.009.01.009.018-.01.04-.032.045zM7.987 18.334c0 .028 0 .032-.027.032-.01 0-.018 0-.023-.004-.009-.005-.014-.014-.018-.023 0 0 0-.005.004-.01.01-.008.01-.026.032-.026.027.004.032.004.032.031zM8.794 17.88c.018 0 .041.015.041.028 0 .014-.018.032-.036.032-.032 0-.037-.005-.037-.032-.004-.023 0-.027.032-.027zM8.136 17.935c0-.031 0-.031.032-.036.027 0 .032.005.032.032 0 .018-.018.045-.032.045-.013 0-.027-.023-.032-.04zM6.885 18.906c-.018 0-.041-.018-.041-.036 0-.014.01-.018.018-.023.01-.005.018-.005.032-.005.009 0 .023-.004.023.01 0 .009.009.027-.01.036-.009.004-.009.022-.022.018zM8.295 17.65c0 .004 0 .022-.009.022-.013.005-.032.005-.045.005 0 0-.005-.005-.005-.01-.009-.027-.004-.045.018-.063.005 0 .01-.004.01-.004.009.004.018.013.022.018.01.013.01.022.01.032zM7.238 18.774c.032 0 .032 0 .037.032 0 .018-.014.046-.028.046-.013 0-.036-.028-.036-.046 0-.027.005-.032.027-.032zM7.756 16.874c0 .027-.023.05-.046.041-.004 0-.004-.005-.004-.005-.005-.013-.005-.031-.005-.05 0-.004.005-.018.014-.018.009-.004.022-.009.027.01.005.004.023.009.014.022zM6.876 18.607c0-.032 0-.032.032-.032.027 0 .031 0 .031.032 0 .018-.013.045-.027.04-.009 0-.018-.004-.027-.013-.004-.01-.004-.018-.009-.027zM9.044 16.321c-.032 0-.037 0-.037-.031 0-.023.005-.032.032-.032.014 0 .04.013.04.027 0 .01-.004.018-.013.027-.004.01-.018.01-.022.01zM9.32 17.514c-.004 0-.013 0-.018-.005-.009-.004-.018-.014-.018-.023-.005-.013.023-.036.04-.036.023 0 .037.01.037.032-.004.027-.004.027-.04.032zM8.014 16.879c-.005 0-.014 0-.018-.005a.054.054 0 01-.023-.022c-.004-.01.023-.032.036-.032.032-.005.037 0 .037.027.004.027.004.027-.032.032zM6.885 19.282c0 .028-.018.046-.05.037-.005 0-.005-.005-.005-.005-.009-.023-.004-.054.018-.068.005 0 .01-.004.01 0 .009 0 .022.023.027.036zM8.69 17.414v.018c0 .01.004.018-.01.018-.008 0-.022.01-.031-.009-.005-.009-.018-.018-.018-.032 0-.022.018-.036.036-.036.014 0 .018.005.018.018 0 .014 0 .023.005.023zM8.005 18.285c-.032 0-.036-.005-.04-.032 0-.023.004-.027.03-.032.019 0 .046.014.042.027 0 .01-.005.018-.014.028-.004.009-.014.009-.018.009zM9.624 16.752c.032 0 .032 0 .036.032 0 .022-.004.031-.032.031-.004 0-.013 0-.018-.004-.009-.01-.018-.018-.018-.027 0-.01.005-.023.014-.027 0-.005.009-.005.018-.005zM6.99 17.042c.013 0 .036.018.04.027 0 .014-.023.032-.036.032-.027 0-.037-.005-.037-.027-.004-.014.014-.032.032-.032zM7.765 17.273c0 .032 0 .032-.028.032-.027 0-.031 0-.031-.036 0-.023 0-.023.027-.027.032 0 .032.004.032.031zM7.452 18.28c.027 0 .031 0 .031.032 0 .01 0 .018-.004.023-.005.009-.018.013-.027.018-.01.004-.032-.027-.032-.041 0-.027.004-.027.032-.032zM9.56 16.756c-.018.01-.022-.014-.036-.023v-.004c.01-.01.014-.023.023-.027.013-.005.027 0 .04 0 0 0 .005.004.005.009.01.018-.009.04-.032.045z" fill="#FF4E0D"/><path d="M7.973 18.68c0 .013 0 .026.005.04 0 .014-.005.018-.014.018h-.018c-.009 0-.027-.004-.027-.004v-.046c0-.004.018-.004.027-.004.01-.005.018-.005.027-.005zM9.089 17.85c0 .026 0 .03-.023.03-.027 0-.036 0-.036-.03 0-.024.004-.028.027-.033.027 0 .032.005.032.032zM9.551 17.954c0 .027 0 .031-.022.031-.027 0-.037 0-.037-.031 0-.023.005-.028.028-.032.027.004.031.004.031.032zM7.07 18.643c0-.01 0-.018.005-.023.005-.009.014-.014.028-.018.018-.005.036.027.031.045 0 .005-.004.005-.009.01-.009.004-.022.004-.027.018-.005.004-.014.004-.014-.005-.009-.009-.009-.018-.013-.027zM6.844 18.692h.014c.009 0 .013.005.022.01-.004.004-.009.009-.009.013-.004.014-.013.023-.027.018a.082.082 0 01-.032-.022s.005-.01.005-.014c.009-.005.018-.005.027-.005 0 0 0-.004 0 0z" fill="#FF4E0D"/><path d="M6.78 15.383c.314.117.581.222.917.349-.123-.526-.268-.58-.916-.35zM6.432 17.002c-.055-.073-.155-.173-.214-.163-.163.036-.317.122-.544.217.245.145.413.286.635.118.06-.04.136-.154.123-.172zM11.606 13.773l-.245.734c.503-.154.535-.24.245-.734zM5.085 17.491c-.377.522.263.717.217 1.084.236-.417-.217-.662-.217-1.084zM18.417 13.936c-.413-.372-.594-.1-.848.25.34-.1.594-.177.848-.25zM8.468 9.147c.313-.073.571-.136.857-.204-.204-.259-.48-.181-.857.204zM6.168 12.956c.282-.05.468-.082.653-.118-.33-.168-.33-.168-.653.118zM9.23 14.498c.126.417.448.304.748.245-.245-.077-.49-.159-.749-.245zM12.272 15.854c.019-.208-.077-.331-.322-.35-.018.064-.031.087-.027.1.077.119.154.237.236.35.04-.032.113-.064.113-.1zM11.424 10.689l.345-.549c-.453.041-.517.186-.345.549zM13.982 9.174c.177.041.358.078.535.118-.15-.177-.258-.444-.535-.118zM13.424 9.79l.567.422c-.054-.449-.186-.571-.567-.421zM10.091 9.677h.023l-.023-.022v.022zM11.007 9.474c-.145-.028-.3-.01-.453-.005.113.1.217.209.344.286.046.027.15-.036.227-.06-.036-.076-.068-.212-.118-.221zM10.844 15.963a.526.526 0 00-.277.023c-.018.004 0 .127 0 .249l.359-.082c-.023-.068-.041-.181-.082-.19zM10.091 9.655c-.005 0-.01.004-.014.004l.014.018v-.022zM9.216 6.594c-.077.372-.027.562.14.72.05-.022.1-.04.15-.063-.082-.181-.159-.362-.29-.657zM10.653 14.457c-.086.028-.15.118-.222.182.082.027.168.086.245.077.077-.01.145-.086.258-.163-.14-.055-.226-.118-.28-.096zM11.624 16.788c.086-.1.168-.2.25-.304.004-.004-.042-.072-.069-.077-.2-.018-.272.1-.181.381zM13.139 16.09c.23-.11.394-.186.62-.295-.375-.168-.453.072-.62.295zM10.558 13.519l.377.371c-.077-.15.113-.553-.377-.371zM16.449 11.201c-.068.014-.154.01-.195.05-.04.04-.032.132-.059.258.122-.05.213-.058.245-.104.032-.05.005-.136.009-.204zM6.05 14.575l.495-.335c-.318-.05-.48.013-.494.335zM12.866 9.773c-.013-.037-.027-.105-.036-.105a2.5 2.5 0 00-.322.046c-.013 0-.022.027-.059.081.086.019.123.032.159.028.086-.014.172-.037.258-.05zM12.146 11.541a7.323 7.323 0 00-.105.29c.041.019.086.037.127.055l.123-.285a1.937 1.937 0 00-.145-.06zM5.937 18.87c-.086-.027-.177-.027-.267-.04.004.067.004.135.013.253.127-.032.209-.045.29-.077 0-.005-.013-.127-.036-.136zM13.429 11.038c.086-.082.168-.118.168-.164.004-.059-.05-.122-.082-.186-.059.032-.15.055-.168.1-.013.05.037.127.082.25zM13.02 14.766c-.013-.086-.054-.163-.081-.245-.04.036-.104.068-.109.109-.014.068.014.14.027.254.087-.06.168-.095.164-.118zM12.05 14.494l.281.485c.028-.286-.013-.422-.28-.485zM9.969 7.369c.095 0 .186-.01.28-.023.01 0 .019-.027.042-.054-.05-.027-.096-.073-.14-.073-.078.005-.16.037-.237.06.018.03.037.09.055.09zM3.956 19.754c-.046-.036-.118-.045-.177-.04-.014 0-.046.122-.032.136.054.04.127.058.218.095 0-.096.018-.173-.01-.19zM11.755 11.764c-.068-.01-.145.018-.217.031.018.046.027.118.059.132.063.023.136.013.258.018-.05-.095-.068-.177-.1-.181zM5.452 15.015a.384.384 0 00-.2.027c-.018.01-.004.087-.009.168.105-.027.173-.045.245-.059-.013-.05-.018-.136-.036-.136zM11.397 12.385l-.1.236c.032.009.091.036.091.027.04-.077.073-.154.109-.232-.032-.009-.064-.022-.1-.031zM13.111 8.839c-.045-.019-.109.009-.19.022.054.064.082.127.127.14.045.014.104-.022.154-.035-.032-.041-.05-.11-.09-.127zM10.916 7.365c.01-.068-.009-.14-.018-.209-.05.01-.136.01-.145.032-.023.063-.009.136-.009.25.09-.037.168-.05.172-.073zM17.401 12.589l-.127.086c.068.077.136.159.204.236a.706.706 0 01.073-.05l-.15-.272zM12.395 12.915c-.109-.022-.222-.04-.331-.063l-.014.132c.105.013.209.031.313.036.01 0 .023-.068.032-.104zM8.808 15.247c-.005.045-.032.113-.014.136.027.031.095.036.145.05.014-.046.023-.096.041-.16a1.472 1.472 0 00-.172-.026zM8.59 7.959c-.027-.028-.109-.023-.145 0-.032.018-.036.086-.109.304.154-.082.231-.11.277-.16.022-.017.009-.113-.023-.144zM12.377 16.548l.072.127c.05.005.118.005.182.01-.014-.046-.018-.123-.041-.128-.068-.018-.145-.009-.213-.009zM10.708 8.698c-.027-.04-.077-.064-.127-.1-.018.06-.045.114-.032.127.04.036.09.055.14.077.005-.036.032-.086.019-.104zM10.735 16.897c-.068.018-.131.045-.195.073.018.031.032.063.068.131.064-.04.123-.072.177-.118a.282.282 0 00-.05-.086zM5.248 15.754c-.005-.004-.059.032-.09.05.026.046.054.095.08.145.046-.027.073-.045.105-.059-.032-.05-.059-.1-.095-.136zM7.688 14.494c.013.032.027.068.05.113l.158.014c-.023-.046-.04-.1-.077-.127-.032-.018-.086 0-.131 0zM10.204 16.063c-.054-.005-.108.009-.163.018.014.036.023.09.046.1.05.013.104.004.167 0-.018-.055-.031-.118-.05-.118zM12.894 11.954c-.068-.005-.14-.018-.209-.014-.013 0-.027.06-.045.114.082-.005.154 0 .227-.014.013-.004.018-.054.027-.086zM9.438 15.863c-.036-.013-.09.027-.136.04.018.033.027.087.055.092.05.013.109.004.204.009-.06-.073-.082-.132-.123-.14zM4.046 18.38c-.068.014-.136.036-.2.054.014.032.023.064.05.127.064-.032.123-.059.177-.095.01-.005-.022-.086-.027-.086zM3.253 20.52c-.023.005-.041.05-.06.078l.214.054c.009-.063.018-.09.022-.122-.063-.005-.122-.018-.176-.01zM6.282 16.235c-.046.018-.09.04-.136.059l.086.14c.05-.018.082-.031.113-.045a1.56 1.56 0 00-.063-.154zM11.932 8.507c-.068.005-.14-.004-.208.018-.014.005-.005.1-.005.177.077-.018.145-.009.172-.04.037-.037.032-.105.041-.155zM7.225 13.972c.046-.014.1-.064.105-.104.004-.037-.05-.114-.082-.114-.04-.004-.104.037-.132.077-.027.037-.031.091-.045.14.05.005.109.02.154 0zM4.763 19.455c.045-.014.1-.064.104-.104.004-.037-.05-.114-.082-.114-.04-.004-.104.036-.131.077-.027.037-.032.091-.046.14.05 0 .11.014.155 0zM5.579 16.344c-.032-.032-.086-.037-.159-.064v.19c.05-.004.104 0 .15-.017.018-.01.027-.091.009-.11zM6.427 15.197c-.045-.018-.104.009-.159.013.01.036.014.068.023.118.05 0 .104 0 .159.005-.005-.046 0-.127-.023-.136zM9.252 5.691c-.054.005-.104.028-.158.046l.077.095c.054-.027.113-.059.172-.09-.032-.014-.064-.05-.09-.05zM8.595 14.085c-.046-.018-.105.014-.19.032.031.068.045.14.08.15.046.014.114-.014.146-.05.018-.018-.009-.122-.036-.132z" fill="#4B8C1C"/><path d="M8.998 4.395l-.059.136c.835.748 2.068.888 3.12 2.122 1.424 1.673 2.762 1.6 3.107 2.313.344.712 1.052 1.12 1.365 1.55.313.431.947.912 1.306 1.914.217.604 1.188 1.084 1.288 2.086l.195-.077c-.803-4.444-5.71-8.23-10.322-10.044z" fill="#C9321B"/><path d="M10.4 2.15c-.264-.109-.64-.027-.871.2-.318.321-.322.72-.404 1.106-.027.127-.05.258-.063.39l-.064.549s.712.421 1.297.68c.59.258 1.683.816 1.882.993.204.177 1.27 1.02 1.67 1.247.398.227 1.636 1.42 1.972 2.014.335.594 1.179 1.197 1.283 1.55.109.354 1.669 2.087 2.218 3.56l1.283-.208a2.395 2.395 0 001.297-.662c-2.267-5.061-6.44-9.297-11.5-11.42z" fill="url(#prefix__paint16_linear)"/><path d="M21.864 13.496c-.281.15-.785.286-1.547.227-1.06-.077-2.208-2.104-2.857-3.27-.648-1.165-2.78-3.084-3.968-4.131-1.074-.943-3.872-1.755-4.376-2.812a4.3 4.3 0 00-.054.336l-.064.549s.712.421 1.297.68c.59.258 1.683.816 1.882.993.204.177 1.27 1.02 1.67 1.247.398.227 1.636 1.42 1.972 2.014.335.594 1.179 1.197 1.283 1.55.109.354 1.669 2.087 2.218 3.56l1.283-.208a2.395 2.395 0 001.297-.662c-.014-.023-.023-.05-.036-.073z" fill="url(#prefix__paint17_linear)"/><defs><linearGradient id="prefix__paint0_linear" x1="13.26" y1="23.899" x2="8.666" y2="12.544" gradientUnits="userSpaceOnUse"><stop stop-color="#FFBC47"/><stop offset=".276" stop-color="#FEC250" stop-opacity=".992"/><stop offset=".723" stop-color="#FCD368" stop-opacity=".978"/><stop offset="1" stop-color="#FBE07A" stop-opacity=".97"/></linearGradient><linearGradient id="prefix__paint1_linear" x1="6.89" y1="23.38" x2="6.718" y2="17.31" gradientUnits="userSpaceOnUse"><stop stop-color="#FFBC47"/><stop offset=".276" stop-color="#FEC250" stop-opacity=".992"/><stop offset=".723" stop-color="#FCD368" stop-opacity=".978"/><stop offset="1" stop-color="#FBE07A" stop-opacity=".97"/></linearGradient><linearGradient id="prefix__paint2_linear" x1="14.102" y1="18.801" x2="10.475" y2="5.753" gradientUnits="userSpaceOnUse"><stop stop-color="#FFBC47"/><stop offset=".276" stop-color="#FEC250" stop-opacity=".992"/><stop offset=".723" stop-color="#FCD368" stop-opacity=".978"/><stop offset="1" stop-color="#FBE07A" stop-opacity=".97"/></linearGradient><linearGradient id="prefix__paint3_linear" x1="5.411" y1="12.764" x2="16.46" y2="18.499" gradientUnits="userSpaceOnUse"><stop stop-color="#FFBC47"/><stop offset=".276" stop-color="#FEC250" stop-opacity=".724"/><stop offset=".723" stop-color="#FCD368" stop-opacity=".277"/><stop offset="1" stop-color="#FBE07A" stop-opacity="0"/></linearGradient><linearGradient id="prefix__paint4_linear" x1="20.409" y1="9.281" x2="11.376" y2="9.48" gradientUnits="userSpaceOnUse"><stop stop-color="#FFBC47"/><stop offset=".276" stop-color="#FEC250" stop-opacity=".992"/><stop offset=".723" stop-color="#FCD368" stop-opacity=".978"/><stop offset="1" stop-color="#FBE07A" stop-opacity=".97"/></linearGradient><linearGradient id="prefix__paint5_linear" x1="11.611" y1="20.888" x2="10.275" y2="15.689" gradientUnits="userSpaceOnUse"><stop stop-color="#FFBC47"/><stop offset=".453" stop-color="#FEB343" stop-opacity=".986"/><stop offset="1" stop-color="#FBA23B" stop-opacity=".97"/></linearGradient><linearGradient id="prefix__paint7_linear" x1="9.023" y1="12.718" x2="4.974" y2="11.043" gradientUnits="userSpaceOnUse"><stop offset=".001" stop-color="#fff" stop-opacity="0"/><stop offset=".138" stop-color="#FFFDF6" stop-opacity=".133"/><stop offset=".36" stop-color="#FEF7DE" stop-opacity=".348"/><stop offset=".639" stop-color="#FDEEB7" stop-opacity=".62"/><stop offset=".962" stop-color="#FBE281" stop-opacity=".933"/><stop offset="1" stop-color="#FBE07A" stop-opacity=".97"/></linearGradient><linearGradient id="prefix__paint8_linear" x1="8.623" y1="6.067" x2="9.07" y2="12.879" gradientUnits="userSpaceOnUse"><stop stop-color="#FFBC47"/><stop offset=".453" stop-color="#FEB343" stop-opacity=".986"/><stop offset="1" stop-color="#FBA23B" stop-opacity=".97"/></linearGradient><linearGradient id="prefix__paint9_linear" x1="7.383" y1="7.088" x2="10.632" y2="16.092" gradientUnits="userSpaceOnUse"><stop stop-color="#E74839"/><stop offset=".358" stop-color="#D03628"/><stop offset=".707" stop-color="#C22B1D"/><stop offset="1" stop-color="#BD2719"/></linearGradient><linearGradient id="prefix__paint10_linear" x1="9.576" y1="13.179" x2="8.693" y2="10.714" gradientUnits="userSpaceOnUse"><stop offset=".005" stop-color="#BD2719"/><stop offset=".097" stop-color="#BB2B1A"/><stop offset=".587" stop-color="#B43920"/><stop offset="1" stop-color="#B23E22"/></linearGradient><linearGradient id="prefix__paint11_linear" x1="14.47" y1="7.856" x2="14.917" y2="14.668" gradientUnits="userSpaceOnUse"><stop stop-color="#FFBC47"/><stop offset=".453" stop-color="#FEB343" stop-opacity=".986"/><stop offset="1" stop-color="#FBA23B" stop-opacity=".97"/></linearGradient><linearGradient id="prefix__paint12_linear" x1="13.23" y1="8.878" x2="16.479" y2="17.881" gradientUnits="userSpaceOnUse"><stop stop-color="#E74839"/><stop offset=".358" stop-color="#D03628"/><stop offset=".707" stop-color="#C22B1D"/><stop offset="1" stop-color="#BD2719"/></linearGradient><linearGradient id="prefix__paint13_linear" x1="15.422" y1="14.968" x2="14.54" y2="12.502" gradientUnits="userSpaceOnUse"><stop offset=".005" stop-color="#BD2719"/><stop offset=".097" stop-color="#BB2B1A"/><stop offset=".587" stop-color="#B43920"/><stop offset="1" stop-color="#B23E22"/></linearGradient><linearGradient id="prefix__paint14_linear" x1="6.988" y1="14.406" x2="9.238" y2="20.643" gradientUnits="userSpaceOnUse"><stop stop-color="#E74839"/><stop offset=".358" stop-color="#D03628"/><stop offset=".707" stop-color="#C22B1D"/><stop offset="1" stop-color="#BD2719"/></linearGradient><linearGradient id="prefix__paint15_linear" x1="8.51" y1="18.628" x2="7.897" y2="16.918" gradientUnits="userSpaceOnUse"><stop offset=".005" stop-color="#BD2719"/><stop offset=".097" stop-color="#BB2B1A"/><stop offset=".587" stop-color="#B43920"/><stop offset="1" stop-color="#B23E22"/></linearGradient><linearGradient id="prefix__paint16_linear" x1="11.328" y1="18.326" x2="17.61" y2="3.338" gradientUnits="userSpaceOnUse"><stop stop-color="#EFA25F"/><stop offset=".441" stop-color="#F3A968" stop-opacity=".987"/><stop offset="1" stop-color="#FBB87A" stop-opacity=".97"/></linearGradient><linearGradient id="prefix__paint17_linear" x1="22.415" y1="5.107" x2="7.962" y2="12.427" gradientUnits="userSpaceOnUse"><stop stop-color="#EFA25F"/><stop offset=".429" stop-color="#ED9C56" stop-opacity=".987"/><stop offset="1" stop-color="#E89043" stop-opacity=".97"/></linearGradient><radialGradient id="prefix__paint6_radial" cx="0" cy="0" r="1" gradientUnits="userSpaceOnUse" gradientTransform="rotate(-3.772 326.047 -27.812) scale(18.2781 18.3436)"><stop offset=".852" stop-color="#FFBC47"/><stop offset=".869" stop-color="#FDB346" stop-opacity=".997"/><stop offset=".896" stop-color="#F89B43" stop-opacity=".992"/><stop offset=".93" stop-color="#F0743F" stop-opacity=".986"/><stop offset=".962" stop-color="#E74A3A" stop-opacity=".98"/></radialGradient></defs></svg>
